%TF.GenerationSoftware,KiCad,Pcbnew,6.0.4-6f826c9f35~116~ubuntu20.04.1*%
%TF.CreationDate,2022-04-16T22:40:28+00:00*%
%TF.ProjectId,USTSIPIN01,55535453-4950-4494-9e30-312e6b696361,REV*%
%TF.SameCoordinates,Original*%
%TF.FileFunction,Legend,Bot*%
%TF.FilePolarity,Positive*%
%FSLAX46Y46*%
G04 Gerber Fmt 4.6, Leading zero omitted, Abs format (unit mm)*
G04 Created by KiCad (PCBNEW 6.0.4-6f826c9f35~116~ubuntu20.04.1) date 2022-04-16 22:40:28*
%MOMM*%
%LPD*%
G01*
G04 APERTURE LIST*
%ADD10C,0.304800*%
%ADD11C,0.150000*%
%ADD12C,0.050000*%
%ADD13C,0.127000*%
%ADD14C,0.120000*%
G04 APERTURE END LIST*
D10*
%TO.C,C1*%
X27719000Y18555714D02*
X27791571Y18483142D01*
X28009285Y18410571D01*
X28154428Y18410571D01*
X28372142Y18483142D01*
X28517285Y18628285D01*
X28589857Y18773428D01*
X28662428Y19063714D01*
X28662428Y19281428D01*
X28589857Y19571714D01*
X28517285Y19716857D01*
X28372142Y19862000D01*
X28154428Y19934571D01*
X28009285Y19934571D01*
X27791571Y19862000D01*
X27719000Y19789428D01*
X26267571Y18410571D02*
X27138428Y18410571D01*
X26703000Y18410571D02*
X26703000Y19934571D01*
X26848142Y19716857D01*
X26993285Y19571714D01*
X27138428Y19499142D01*
X33044291Y18691302D02*
X31883148Y18691302D01*
X32463720Y18110731D02*
X32463720Y19271874D01*
D11*
%TO.C,U1*%
X11081904Y28227619D02*
X11081904Y27418095D01*
X11034285Y27322857D01*
X10986666Y27275238D01*
X10891428Y27227619D01*
X10700952Y27227619D01*
X10605714Y27275238D01*
X10558095Y27322857D01*
X10510476Y27418095D01*
X10510476Y28227619D01*
X9510476Y27227619D02*
X10081904Y27227619D01*
X9796190Y27227619D02*
X9796190Y28227619D01*
X9891428Y28084761D01*
X9986666Y27989523D01*
X10081904Y27941904D01*
%TO.C,U4*%
X38220380Y34283904D02*
X39029904Y34283904D01*
X39125142Y34236285D01*
X39172761Y34188666D01*
X39220380Y34093428D01*
X39220380Y33902952D01*
X39172761Y33807714D01*
X39125142Y33760095D01*
X39029904Y33712476D01*
X38220380Y33712476D01*
X38553714Y32807714D02*
X39220380Y32807714D01*
X38172761Y33045809D02*
X38887047Y33283904D01*
X38887047Y32664857D01*
%TO.C,U5*%
X42196904Y21242619D02*
X42196904Y20433095D01*
X42149285Y20337857D01*
X42101666Y20290238D01*
X42006428Y20242619D01*
X41815952Y20242619D01*
X41720714Y20290238D01*
X41673095Y20337857D01*
X41625476Y20433095D01*
X41625476Y21242619D01*
X40673095Y21242619D02*
X41149285Y21242619D01*
X41196904Y20766428D01*
X41149285Y20814047D01*
X41054047Y20861666D01*
X40815952Y20861666D01*
X40720714Y20814047D01*
X40673095Y20766428D01*
X40625476Y20671190D01*
X40625476Y20433095D01*
X40673095Y20337857D01*
X40720714Y20290238D01*
X40815952Y20242619D01*
X41054047Y20242619D01*
X41149285Y20290238D01*
X41196904Y20337857D01*
%TO.C,U2*%
X33433904Y26195619D02*
X33433904Y25386095D01*
X33386285Y25290857D01*
X33338666Y25243238D01*
X33243428Y25195619D01*
X33052952Y25195619D01*
X32957714Y25243238D01*
X32910095Y25290857D01*
X32862476Y25386095D01*
X32862476Y26195619D01*
X32433904Y26100380D02*
X32386285Y26148000D01*
X32291047Y26195619D01*
X32052952Y26195619D01*
X31957714Y26148000D01*
X31910095Y26100380D01*
X31862476Y26005142D01*
X31862476Y25909904D01*
X31910095Y25767047D01*
X32481523Y25195619D01*
X31862476Y25195619D01*
%TO.C,R1*%
X44426380Y34704666D02*
X43950190Y35038000D01*
X44426380Y35276095D02*
X43426380Y35276095D01*
X43426380Y34895142D01*
X43474000Y34799904D01*
X43521619Y34752285D01*
X43616857Y34704666D01*
X43759714Y34704666D01*
X43854952Y34752285D01*
X43902571Y34799904D01*
X43950190Y34895142D01*
X43950190Y35276095D01*
X44426380Y33752285D02*
X44426380Y34323714D01*
X44426380Y34038000D02*
X43426380Y34038000D01*
X43569238Y34133238D01*
X43664476Y34228476D01*
X43712095Y34323714D01*
%TO.C,U3*%
X15653904Y20099619D02*
X15653904Y19290095D01*
X15606285Y19194857D01*
X15558666Y19147238D01*
X15463428Y19099619D01*
X15272952Y19099619D01*
X15177714Y19147238D01*
X15130095Y19194857D01*
X15082476Y19290095D01*
X15082476Y20099619D01*
X14701523Y20099619D02*
X14082476Y20099619D01*
X14415809Y19718666D01*
X14272952Y19718666D01*
X14177714Y19671047D01*
X14130095Y19623428D01*
X14082476Y19528190D01*
X14082476Y19290095D01*
X14130095Y19194857D01*
X14177714Y19147238D01*
X14272952Y19099619D01*
X14558666Y19099619D01*
X14653904Y19147238D01*
X14701523Y19194857D01*
%TO.C,D1*%
X83768095Y12120619D02*
X83768095Y13120619D01*
X83530000Y13120619D01*
X83387142Y13073000D01*
X83291904Y12977761D01*
X83244285Y12882523D01*
X83196666Y12692047D01*
X83196666Y12549190D01*
X83244285Y12358714D01*
X83291904Y12263476D01*
X83387142Y12168238D01*
X83530000Y12120619D01*
X83768095Y12120619D01*
X82244285Y12120619D02*
X82815714Y12120619D01*
X82530000Y12120619D02*
X82530000Y13120619D01*
X82625238Y12977761D01*
X82720476Y12882523D01*
X82815714Y12834904D01*
%TO.C,D3*%
X85673095Y14660619D02*
X85673095Y15660619D01*
X85435000Y15660619D01*
X85292142Y15613000D01*
X85196904Y15517761D01*
X85149285Y15422523D01*
X85101666Y15232047D01*
X85101666Y15089190D01*
X85149285Y14898714D01*
X85196904Y14803476D01*
X85292142Y14708238D01*
X85435000Y14660619D01*
X85673095Y14660619D01*
X84768333Y15660619D02*
X84149285Y15660619D01*
X84482619Y15279666D01*
X84339761Y15279666D01*
X84244523Y15232047D01*
X84196904Y15184428D01*
X84149285Y15089190D01*
X84149285Y14851095D01*
X84196904Y14755857D01*
X84244523Y14708238D01*
X84339761Y14660619D01*
X84625476Y14660619D01*
X84720714Y14708238D01*
X84768333Y14755857D01*
%TO.C,L2*%
X67086666Y15803619D02*
X67562857Y15803619D01*
X67562857Y16803619D01*
X66800952Y16708380D02*
X66753333Y16756000D01*
X66658095Y16803619D01*
X66420000Y16803619D01*
X66324761Y16756000D01*
X66277142Y16708380D01*
X66229523Y16613142D01*
X66229523Y16517904D01*
X66277142Y16375047D01*
X66848571Y15803619D01*
X66229523Y15803619D01*
%TO.C,L3*%
X61888666Y19613619D02*
X62364857Y19613619D01*
X62364857Y20613619D01*
X61650571Y20613619D02*
X61031523Y20613619D01*
X61364857Y20232666D01*
X61222000Y20232666D01*
X61126761Y20185047D01*
X61079142Y20137428D01*
X61031523Y20042190D01*
X61031523Y19804095D01*
X61079142Y19708857D01*
X61126761Y19661238D01*
X61222000Y19613619D01*
X61507714Y19613619D01*
X61602952Y19661238D01*
X61650571Y19708857D01*
%TO.C,U6*%
X66844904Y14014619D02*
X66844904Y13205095D01*
X66797285Y13109857D01*
X66749666Y13062238D01*
X66654428Y13014619D01*
X66463952Y13014619D01*
X66368714Y13062238D01*
X66321095Y13109857D01*
X66273476Y13205095D01*
X66273476Y14014619D01*
X65368714Y14014619D02*
X65559190Y14014619D01*
X65654428Y13967000D01*
X65702047Y13919380D01*
X65797285Y13776523D01*
X65844904Y13586047D01*
X65844904Y13205095D01*
X65797285Y13109857D01*
X65749666Y13062238D01*
X65654428Y13014619D01*
X65463952Y13014619D01*
X65368714Y13062238D01*
X65321095Y13109857D01*
X65273476Y13205095D01*
X65273476Y13443190D01*
X65321095Y13538428D01*
X65368714Y13586047D01*
X65463952Y13633666D01*
X65654428Y13633666D01*
X65749666Y13586047D01*
X65797285Y13538428D01*
X65844904Y13443190D01*
%TO.C,C52*%
X54713142Y19565857D02*
X54760761Y19613476D01*
X54808380Y19756333D01*
X54808380Y19851571D01*
X54760761Y19994428D01*
X54665523Y20089666D01*
X54570285Y20137285D01*
X54379809Y20184904D01*
X54236952Y20184904D01*
X54046476Y20137285D01*
X53951238Y20089666D01*
X53856000Y19994428D01*
X53808380Y19851571D01*
X53808380Y19756333D01*
X53856000Y19613476D01*
X53903619Y19565857D01*
X53808380Y18661095D02*
X53808380Y19137285D01*
X54284571Y19184904D01*
X54236952Y19137285D01*
X54189333Y19042047D01*
X54189333Y18803952D01*
X54236952Y18708714D01*
X54284571Y18661095D01*
X54379809Y18613476D01*
X54617904Y18613476D01*
X54713142Y18661095D01*
X54760761Y18708714D01*
X54808380Y18803952D01*
X54808380Y19042047D01*
X54760761Y19137285D01*
X54713142Y19184904D01*
X53903619Y18232523D02*
X53856000Y18184904D01*
X53808380Y18089666D01*
X53808380Y17851571D01*
X53856000Y17756333D01*
X53903619Y17708714D01*
X53998857Y17661095D01*
X54094095Y17661095D01*
X54236952Y17708714D01*
X54808380Y18280142D01*
X54808380Y17661095D01*
%TO.C,C51*%
X57135142Y14676857D02*
X57182761Y14724476D01*
X57230380Y14867333D01*
X57230380Y14962571D01*
X57182761Y15105428D01*
X57087523Y15200666D01*
X56992285Y15248285D01*
X56801809Y15295904D01*
X56658952Y15295904D01*
X56468476Y15248285D01*
X56373238Y15200666D01*
X56278000Y15105428D01*
X56230380Y14962571D01*
X56230380Y14867333D01*
X56278000Y14724476D01*
X56325619Y14676857D01*
X56230380Y13772095D02*
X56230380Y14248285D01*
X56706571Y14295904D01*
X56658952Y14248285D01*
X56611333Y14153047D01*
X56611333Y13914952D01*
X56658952Y13819714D01*
X56706571Y13772095D01*
X56801809Y13724476D01*
X57039904Y13724476D01*
X57135142Y13772095D01*
X57182761Y13819714D01*
X57230380Y13914952D01*
X57230380Y14153047D01*
X57182761Y14248285D01*
X57135142Y14295904D01*
X57230380Y12772095D02*
X57230380Y13343523D01*
X57230380Y13057809D02*
X56230380Y13057809D01*
X56373238Y13153047D01*
X56468476Y13248285D01*
X56516095Y13343523D01*
%TO.C,U8*%
X61655904Y17989619D02*
X61655904Y17180095D01*
X61608285Y17084857D01*
X61560666Y17037238D01*
X61465428Y16989619D01*
X61274952Y16989619D01*
X61179714Y17037238D01*
X61132095Y17084857D01*
X61084476Y17180095D01*
X61084476Y17989619D01*
X60465428Y17561047D02*
X60560666Y17608666D01*
X60608285Y17656285D01*
X60655904Y17751523D01*
X60655904Y17799142D01*
X60608285Y17894380D01*
X60560666Y17942000D01*
X60465428Y17989619D01*
X60274952Y17989619D01*
X60179714Y17942000D01*
X60132095Y17894380D01*
X60084476Y17799142D01*
X60084476Y17751523D01*
X60132095Y17656285D01*
X60179714Y17608666D01*
X60274952Y17561047D01*
X60465428Y17561047D01*
X60560666Y17513428D01*
X60608285Y17465809D01*
X60655904Y17370571D01*
X60655904Y17180095D01*
X60608285Y17084857D01*
X60560666Y17037238D01*
X60465428Y16989619D01*
X60274952Y16989619D01*
X60179714Y17037238D01*
X60132095Y17084857D01*
X60084476Y17180095D01*
X60084476Y17370571D01*
X60132095Y17465809D01*
X60179714Y17513428D01*
X60274952Y17561047D01*
%TO.C,U10*%
X64484095Y31154619D02*
X64484095Y30345095D01*
X64436476Y30249857D01*
X64388857Y30202238D01*
X64293619Y30154619D01*
X64103142Y30154619D01*
X64007904Y30202238D01*
X63960285Y30249857D01*
X63912666Y30345095D01*
X63912666Y31154619D01*
X62912666Y30154619D02*
X63484095Y30154619D01*
X63198380Y30154619D02*
X63198380Y31154619D01*
X63293619Y31011761D01*
X63388857Y30916523D01*
X63484095Y30868904D01*
X62293619Y31154619D02*
X62198380Y31154619D01*
X62103142Y31107000D01*
X62055523Y31059380D01*
X62007904Y30964142D01*
X61960285Y30773666D01*
X61960285Y30535571D01*
X62007904Y30345095D01*
X62055523Y30249857D01*
X62103142Y30202238D01*
X62198380Y30154619D01*
X62293619Y30154619D01*
X62388857Y30202238D01*
X62436476Y30249857D01*
X62484095Y30345095D01*
X62531714Y30535571D01*
X62531714Y30773666D01*
X62484095Y30964142D01*
X62436476Y31059380D01*
X62388857Y31107000D01*
X62293619Y31154619D01*
%TO.C,M7*%
X48563380Y14503523D02*
X47563380Y14503523D01*
X48277666Y14170190D01*
X47563380Y13836857D01*
X48563380Y13836857D01*
X47563380Y13455904D02*
X47563380Y12789238D01*
X48563380Y13217809D01*
%TO.C,C29*%
X75953857Y16025857D02*
X76001476Y15978238D01*
X76144333Y15930619D01*
X76239571Y15930619D01*
X76382428Y15978238D01*
X76477666Y16073476D01*
X76525285Y16168714D01*
X76572904Y16359190D01*
X76572904Y16502047D01*
X76525285Y16692523D01*
X76477666Y16787761D01*
X76382428Y16883000D01*
X76239571Y16930619D01*
X76144333Y16930619D01*
X76001476Y16883000D01*
X75953857Y16835380D01*
X75572904Y16835380D02*
X75525285Y16883000D01*
X75430047Y16930619D01*
X75191952Y16930619D01*
X75096714Y16883000D01*
X75049095Y16835380D01*
X75001476Y16740142D01*
X75001476Y16644904D01*
X75049095Y16502047D01*
X75620523Y15930619D01*
X75001476Y15930619D01*
X74525285Y15930619D02*
X74334809Y15930619D01*
X74239571Y15978238D01*
X74191952Y16025857D01*
X74096714Y16168714D01*
X74049095Y16359190D01*
X74049095Y16740142D01*
X74096714Y16835380D01*
X74144333Y16883000D01*
X74239571Y16930619D01*
X74430047Y16930619D01*
X74525285Y16883000D01*
X74572904Y16835380D01*
X74620523Y16740142D01*
X74620523Y16502047D01*
X74572904Y16406809D01*
X74525285Y16359190D01*
X74430047Y16311571D01*
X74239571Y16311571D01*
X74144333Y16359190D01*
X74096714Y16406809D01*
X74049095Y16502047D01*
D12*
%TO.C,J22*%
X48371142Y23395809D02*
X48656857Y23395809D01*
X48514000Y23395809D02*
X48514000Y23895809D01*
X48561619Y23824380D01*
X48609238Y23776761D01*
X48656857Y23752952D01*
D13*
%TO.C,L1*%
X76327000Y33183285D02*
X76689857Y33183285D01*
X76689857Y33945285D01*
X75673857Y33183285D02*
X76109285Y33183285D01*
X75891571Y33183285D02*
X75891571Y33945285D01*
X75964142Y33836428D01*
X76036714Y33763857D01*
X76109285Y33727571D01*
D11*
%TO.C,U11*%
X74392380Y25114095D02*
X75201904Y25114095D01*
X75297142Y25066476D01*
X75344761Y25018857D01*
X75392380Y24923619D01*
X75392380Y24733142D01*
X75344761Y24637904D01*
X75297142Y24590285D01*
X75201904Y24542666D01*
X74392380Y24542666D01*
X75392380Y23542666D02*
X75392380Y24114095D01*
X75392380Y23828380D02*
X74392380Y23828380D01*
X74535238Y23923619D01*
X74630476Y24018857D01*
X74678095Y24114095D01*
X75392380Y22590285D02*
X75392380Y23161714D01*
X75392380Y22876000D02*
X74392380Y22876000D01*
X74535238Y22971238D01*
X74630476Y23066476D01*
X74678095Y23161714D01*
%TO.C,C45*%
X75953857Y11834857D02*
X76001476Y11787238D01*
X76144333Y11739619D01*
X76239571Y11739619D01*
X76382428Y11787238D01*
X76477666Y11882476D01*
X76525285Y11977714D01*
X76572904Y12168190D01*
X76572904Y12311047D01*
X76525285Y12501523D01*
X76477666Y12596761D01*
X76382428Y12692000D01*
X76239571Y12739619D01*
X76144333Y12739619D01*
X76001476Y12692000D01*
X75953857Y12644380D01*
X75096714Y12406285D02*
X75096714Y11739619D01*
X75334809Y12787238D02*
X75572904Y12072952D01*
X74953857Y12072952D01*
X74096714Y12739619D02*
X74572904Y12739619D01*
X74620523Y12263428D01*
X74572904Y12311047D01*
X74477666Y12358666D01*
X74239571Y12358666D01*
X74144333Y12311047D01*
X74096714Y12263428D01*
X74049095Y12168190D01*
X74049095Y11930095D01*
X74096714Y11834857D01*
X74144333Y11787238D01*
X74239571Y11739619D01*
X74477666Y11739619D01*
X74572904Y11787238D01*
X74620523Y11834857D01*
%TO.C,M6*%
X2936380Y14564523D02*
X1936380Y14564523D01*
X2650666Y14231190D01*
X1936380Y13897857D01*
X2936380Y13897857D01*
X1936380Y12993095D02*
X1936380Y13183571D01*
X1984000Y13278809D01*
X2031619Y13326428D01*
X2174476Y13421666D01*
X2364952Y13469285D01*
X2745904Y13469285D01*
X2841142Y13421666D01*
X2888761Y13374047D01*
X2936380Y13278809D01*
X2936380Y13088333D01*
X2888761Y12993095D01*
X2841142Y12945476D01*
X2745904Y12897857D01*
X2507809Y12897857D01*
X2412571Y12945476D01*
X2364952Y12993095D01*
X2317333Y13088333D01*
X2317333Y13278809D01*
X2364952Y13374047D01*
X2412571Y13421666D01*
X2507809Y13469285D01*
%TO.C,C20*%
X10828000Y20060000D02*
X10828000Y21076000D01*
X9304000Y18028000D02*
X10828000Y18028000D01*
X9304000Y19044000D02*
X9304000Y18028000D01*
X9304000Y21076000D02*
X9304000Y20060000D01*
X10828000Y18028000D02*
X10828000Y19044000D01*
X10828000Y21076000D02*
X9304000Y21076000D01*
X10955000Y21203000D02*
G75*
G03*
X10955000Y21203000I-127000J0D01*
G01*
%TO.C,C1*%
X33065700Y18802700D02*
X31866820Y18802700D01*
X32466260Y19303080D02*
X32466260Y18203260D01*
X24488120Y17951800D02*
X30487600Y17951800D01*
X24465260Y14550740D02*
X30464740Y14550740D01*
X31783000Y17951800D02*
X31783000Y14553280D01*
X31765220Y17949260D02*
X31765220Y14550740D01*
%TO.C,C3*%
X6002000Y30410500D02*
X6002000Y31426500D01*
X6002000Y31426500D02*
X4478000Y31426500D01*
X4478000Y28378500D02*
X6002000Y28378500D01*
X6002000Y28378500D02*
X6002000Y29394500D01*
X4478000Y31426500D02*
X4478000Y30410500D01*
X4478000Y29394500D02*
X4478000Y28378500D01*
X4605000Y28251500D02*
G75*
G03*
X4605000Y28251500I-127000J0D01*
G01*
%TO.C,C4*%
X27528500Y12313000D02*
X28544500Y12313000D01*
X30576500Y12313000D02*
X30576500Y13837000D01*
X27528500Y13837000D02*
X27528500Y12313000D01*
X30576500Y13837000D02*
X29560500Y13837000D01*
X29560500Y12313000D02*
X30576500Y12313000D01*
X28544500Y13837000D02*
X27528500Y13837000D01*
X30830500Y12313000D02*
G75*
G03*
X30830500Y12313000I-127000J0D01*
G01*
%TO.C,C5*%
X8351500Y23108000D02*
X8351500Y24632000D01*
X8351500Y24632000D02*
X7335500Y24632000D01*
X5303500Y24632000D02*
X5303500Y23108000D01*
X7335500Y23108000D02*
X8351500Y23108000D01*
X5303500Y23108000D02*
X6319500Y23108000D01*
X6319500Y24632000D02*
X5303500Y24632000D01*
X8605500Y23108000D02*
G75*
G03*
X8605500Y23108000I-127000J0D01*
G01*
%TO.C,C6*%
X18956000Y22282500D02*
X20480000Y22282500D01*
X20480000Y25330500D02*
X18956000Y25330500D01*
X20480000Y22282500D02*
X20480000Y23298500D01*
X18956000Y23298500D02*
X18956000Y22282500D01*
X20480000Y24314500D02*
X20480000Y25330500D01*
X18956000Y25330500D02*
X18956000Y24314500D01*
X20607000Y25457500D02*
G75*
G03*
X20607000Y25457500I-127000J0D01*
G01*
%TO.C,C7*%
X40800000Y23362000D02*
X40800000Y24378000D01*
X39276000Y24378000D02*
X39276000Y23362000D01*
X40800000Y26410000D02*
X39276000Y26410000D01*
X40800000Y25394000D02*
X40800000Y26410000D01*
X39276000Y23362000D02*
X40800000Y23362000D01*
X39276000Y26410000D02*
X39276000Y25394000D01*
X39403000Y23235000D02*
G75*
G03*
X39403000Y23235000I-127000J0D01*
G01*
%TO.C,C8*%
X33942000Y33522000D02*
X33942000Y34538000D01*
X32418000Y32506000D02*
X32418000Y31490000D01*
X32418000Y31490000D02*
X33942000Y31490000D01*
X32418000Y34538000D02*
X32418000Y33522000D01*
X33942000Y31490000D02*
X33942000Y32506000D01*
X33942000Y34538000D02*
X32418000Y34538000D01*
X32545000Y31363000D02*
G75*
G03*
X32545000Y31363000I-127000J0D01*
G01*
%TO.C,C9*%
X40927000Y18409000D02*
X39403000Y18409000D01*
X39403000Y15361000D02*
X40927000Y15361000D01*
X39403000Y18409000D02*
X39403000Y17393000D01*
X40927000Y15361000D02*
X40927000Y16377000D01*
X39403000Y16377000D02*
X39403000Y15361000D01*
X40927000Y17393000D02*
X40927000Y18409000D01*
X41054000Y18536000D02*
G75*
G03*
X41054000Y18536000I-127000J0D01*
G01*
%TO.C,C10*%
X9812000Y24632000D02*
X8796000Y24632000D01*
X10828000Y23108000D02*
X11844000Y23108000D01*
X8796000Y23108000D02*
X9812000Y23108000D01*
X8796000Y24632000D02*
X8796000Y23108000D01*
X11844000Y23108000D02*
X11844000Y24632000D01*
X11844000Y24632000D02*
X10828000Y24632000D01*
X12098000Y23108000D02*
G75*
G03*
X12098000Y23108000I-127000J0D01*
G01*
%TO.C,C11*%
X16924000Y22282500D02*
X18448000Y22282500D01*
X18448000Y24314500D02*
X18448000Y25330500D01*
X16924000Y25330500D02*
X16924000Y24314500D01*
X16924000Y23298500D02*
X16924000Y22282500D01*
X18448000Y25330500D02*
X16924000Y25330500D01*
X18448000Y22282500D02*
X18448000Y23298500D01*
X18575000Y25457500D02*
G75*
G03*
X18575000Y25457500I-127000J0D01*
G01*
%TO.C,C12*%
X38514000Y26410000D02*
X36990000Y26410000D01*
X36990000Y24378000D02*
X36990000Y23362000D01*
X38514000Y25394000D02*
X38514000Y26410000D01*
X36990000Y23362000D02*
X38514000Y23362000D01*
X38514000Y23362000D02*
X38514000Y24378000D01*
X36990000Y26410000D02*
X36990000Y25394000D01*
X37117000Y23235000D02*
G75*
G03*
X37117000Y23235000I-127000J0D01*
G01*
%TO.C,C13*%
X36228000Y31490000D02*
X36228000Y32506000D01*
X34704000Y32506000D02*
X34704000Y31490000D01*
X36228000Y33522000D02*
X36228000Y34538000D01*
X34704000Y34538000D02*
X34704000Y33522000D01*
X36228000Y34538000D02*
X34704000Y34538000D01*
X34704000Y31490000D02*
X36228000Y31490000D01*
X34831000Y31363000D02*
G75*
G03*
X34831000Y31363000I-127000J0D01*
G01*
%TO.C,C14*%
X41943000Y18409000D02*
X41943000Y17393000D01*
X41943000Y16377000D02*
X41943000Y15361000D01*
X41943000Y15361000D02*
X43467000Y15361000D01*
X43467000Y15361000D02*
X43467000Y16377000D01*
X43467000Y17393000D02*
X43467000Y18409000D01*
X43467000Y18409000D02*
X41943000Y18409000D01*
X43594000Y18536000D02*
G75*
G03*
X43594000Y18536000I-127000J0D01*
G01*
%TO.C,C15*%
X19464000Y25838500D02*
X20988000Y25838500D01*
X20988000Y25838500D02*
X20988000Y26854500D01*
X19464000Y26854500D02*
X19464000Y25838500D01*
X20988000Y28886500D02*
X19464000Y28886500D01*
X20988000Y27870500D02*
X20988000Y28886500D01*
X19464000Y28886500D02*
X19464000Y27870500D01*
X19591000Y25711500D02*
G75*
G03*
X19591000Y25711500I-127000J0D01*
G01*
%TO.C,C16*%
X22004000Y29013500D02*
X22004000Y27997500D01*
X23528000Y25965500D02*
X23528000Y26981500D01*
X23528000Y29013500D02*
X22004000Y29013500D01*
X22004000Y26981500D02*
X22004000Y25965500D01*
X22004000Y25965500D02*
X23528000Y25965500D01*
X23528000Y27997500D02*
X23528000Y29013500D01*
X23655000Y29140500D02*
G75*
G03*
X23655000Y29140500I-127000J0D01*
G01*
%TO.C,C17*%
X26576000Y26791000D02*
X28100000Y26791000D01*
X26576000Y29839000D02*
X26576000Y28823000D01*
X28100000Y26791000D02*
X28100000Y27807000D01*
X26576000Y27807000D02*
X26576000Y26791000D01*
X28100000Y29839000D02*
X26576000Y29839000D01*
X28100000Y28823000D02*
X28100000Y29839000D01*
X26703000Y26664000D02*
G75*
G03*
X26703000Y26664000I-127000J0D01*
G01*
%TO.C,C18*%
X27846000Y22282500D02*
X27846000Y23298500D01*
X27846000Y24314500D02*
X27846000Y25330500D01*
X26322000Y22282500D02*
X27846000Y22282500D01*
X27846000Y25330500D02*
X26322000Y25330500D01*
X26322000Y25330500D02*
X26322000Y24314500D01*
X26322000Y23298500D02*
X26322000Y22282500D01*
X26449000Y22155500D02*
G75*
G03*
X26449000Y22155500I-127000J0D01*
G01*
%TO.C,C19*%
X38514000Y27172000D02*
X38514000Y28188000D01*
X36990000Y27172000D02*
X38514000Y27172000D01*
X36990000Y30220000D02*
X36990000Y29204000D01*
X38514000Y30220000D02*
X36990000Y30220000D01*
X36990000Y28188000D02*
X36990000Y27172000D01*
X38514000Y29204000D02*
X38514000Y30220000D01*
X37117000Y27045000D02*
G75*
G03*
X37117000Y27045000I-127000J0D01*
G01*
%TO.C,R3*%
X36482000Y19171000D02*
X36482000Y20187000D01*
X34958000Y19171000D02*
X36482000Y19171000D01*
X34958000Y20187000D02*
X34958000Y19171000D01*
X36482000Y21203000D02*
X36482000Y22219000D01*
X34958000Y22219000D02*
X34958000Y21203000D01*
X36482000Y22219000D02*
X34958000Y22219000D01*
X36609000Y22346000D02*
G75*
G03*
X36609000Y22346000I-127000J0D01*
G01*
%TO.C,R4*%
X31656000Y34538000D02*
X30132000Y34538000D01*
X31656000Y33522000D02*
X31656000Y34538000D01*
X31656000Y31490000D02*
X31656000Y32506000D01*
X30132000Y32506000D02*
X30132000Y31490000D01*
X30132000Y31490000D02*
X31656000Y31490000D01*
X30132000Y34538000D02*
X30132000Y33522000D01*
X30259000Y31363000D02*
G75*
G03*
X30259000Y31363000I-127000J0D01*
G01*
%TO.C,R5*%
X35466000Y18282000D02*
X35466000Y16758000D01*
X38514000Y18282000D02*
X37498000Y18282000D01*
X37498000Y16758000D02*
X38514000Y16758000D01*
X38514000Y16758000D02*
X38514000Y18282000D01*
X35466000Y16758000D02*
X36482000Y16758000D01*
X36482000Y18282000D02*
X35466000Y18282000D01*
X38768000Y16758000D02*
G75*
G03*
X38768000Y16758000I-127000J0D01*
G01*
%TO.C,R6*%
X6319500Y22092000D02*
X5303500Y22092000D01*
X8351500Y20568000D02*
X8351500Y22092000D01*
X7335500Y20568000D02*
X8351500Y20568000D01*
X8351500Y22092000D02*
X7335500Y22092000D01*
X5303500Y22092000D02*
X5303500Y20568000D01*
X5303500Y20568000D02*
X6319500Y20568000D01*
X8605500Y20568000D02*
G75*
G03*
X8605500Y20568000I-127000J0D01*
G01*
%TO.C,R7*%
X16162000Y29331000D02*
X16162000Y30347000D01*
X16162000Y32379000D02*
X14638000Y32379000D01*
X14638000Y30347000D02*
X14638000Y29331000D01*
X16162000Y31363000D02*
X16162000Y32379000D01*
X14638000Y32379000D02*
X14638000Y31363000D01*
X14638000Y29331000D02*
X16162000Y29331000D01*
X16289000Y32506000D02*
G75*
G03*
X16289000Y32506000I-127000J0D01*
G01*
%TO.C,R8*%
X18702000Y32442500D02*
X17178000Y32442500D01*
X18702000Y29394500D02*
X18702000Y30410500D01*
X17178000Y29394500D02*
X18702000Y29394500D01*
X17178000Y30410500D02*
X17178000Y29394500D01*
X18702000Y31426500D02*
X18702000Y32442500D01*
X17178000Y32442500D02*
X17178000Y31426500D01*
X17305000Y29267500D02*
G75*
G03*
X17305000Y29267500I-127000J0D01*
G01*
%TO.C,R9*%
X17178000Y25838500D02*
X18702000Y25838500D01*
X18702000Y28886500D02*
X17178000Y28886500D01*
X17178000Y28886500D02*
X17178000Y27870500D01*
X18702000Y27870500D02*
X18702000Y28886500D01*
X17178000Y26854500D02*
X17178000Y25838500D01*
X18702000Y25838500D02*
X18702000Y26854500D01*
X17305000Y25711500D02*
G75*
G03*
X17305000Y25711500I-127000J0D01*
G01*
%TO.C,R10*%
X24036000Y29013500D02*
X24036000Y27997500D01*
X25560000Y27997500D02*
X25560000Y29013500D01*
X24036000Y25965500D02*
X25560000Y25965500D01*
X24036000Y26981500D02*
X24036000Y25965500D01*
X25560000Y25965500D02*
X25560000Y26981500D01*
X25560000Y29013500D02*
X24036000Y29013500D01*
X24163000Y25838500D02*
G75*
G03*
X24163000Y25838500I-127000J0D01*
G01*
%TO.C,R11*%
X24036000Y25330500D02*
X24036000Y24314500D01*
X25560000Y24314500D02*
X25560000Y25330500D01*
X24036000Y22282500D02*
X25560000Y22282500D01*
X25560000Y22282500D02*
X25560000Y23298500D01*
X25560000Y25330500D02*
X24036000Y25330500D01*
X24036000Y23298500D02*
X24036000Y22282500D01*
X24163000Y22155500D02*
G75*
G03*
X24163000Y22155500I-127000J0D01*
G01*
%TO.C,R12*%
X41943000Y26029000D02*
X41943000Y25013000D01*
X41943000Y22981000D02*
X43467000Y22981000D01*
X43467000Y22981000D02*
X43467000Y23997000D01*
X43467000Y26029000D02*
X41943000Y26029000D01*
X41943000Y23997000D02*
X41943000Y22981000D01*
X43467000Y25013000D02*
X43467000Y26029000D01*
X42070000Y22854000D02*
G75*
G03*
X42070000Y22854000I-127000J0D01*
G01*
%TO.C,R13*%
X39022000Y28696000D02*
X39022000Y27172000D01*
X40038000Y28696000D02*
X39022000Y28696000D01*
X42070000Y27172000D02*
X42070000Y28696000D01*
X42070000Y28696000D02*
X41054000Y28696000D01*
X41054000Y27172000D02*
X42070000Y27172000D01*
X39022000Y27172000D02*
X40038000Y27172000D01*
X39022000Y28696000D02*
G75*
G03*
X39022000Y28696000I-127000J0D01*
G01*
%TO.C,U1*%
X8245000Y25250000D02*
X6845000Y25250000D01*
X8245000Y25105000D02*
X8245000Y25250000D01*
X12395000Y25105000D02*
X12395000Y25250000D01*
X8245000Y30255000D02*
X8245000Y30110000D01*
X8245000Y25105000D02*
X12395000Y25105000D01*
X8245000Y30255000D02*
X12395000Y30255000D01*
D14*
%TO.C,U4*%
X40378000Y34422000D02*
X40378000Y31972000D01*
X37158000Y32622000D02*
X37158000Y34422000D01*
%TO.C,U5*%
X42335000Y19085000D02*
X39885000Y19085000D01*
X40535000Y22305000D02*
X42335000Y22305000D01*
D11*
%TO.C,R2*%
X16162000Y23298500D02*
X16162000Y24314500D01*
X14638000Y26346500D02*
X14638000Y25330500D01*
X16162000Y25330500D02*
X16162000Y26346500D01*
X14638000Y23298500D02*
X16162000Y23298500D01*
X16162000Y26346500D02*
X14638000Y26346500D01*
X14638000Y24314500D02*
X14638000Y23298500D01*
X16289000Y26473500D02*
G75*
G03*
X16289000Y26473500I-127000J0D01*
G01*
%TO.C,U2*%
X30597000Y28223000D02*
X34747000Y28223000D01*
X30597000Y23073000D02*
X30597000Y23218000D01*
X34747000Y23073000D02*
X34747000Y23218000D01*
X30597000Y23073000D02*
X34747000Y23073000D01*
X30597000Y28223000D02*
X30597000Y28078000D01*
X30597000Y23218000D02*
X29197000Y23218000D01*
%TO.C,C2*%
X19558000Y36068000D02*
X19558000Y35052000D01*
X21082000Y35052000D02*
X21082000Y36068000D01*
X19558000Y34036000D02*
X19558000Y33020000D01*
X19558000Y33020000D02*
X21082000Y33020000D01*
X21082000Y36068000D02*
X19558000Y36068000D01*
X21082000Y33020000D02*
X21082000Y34036000D01*
X21209000Y36195000D02*
G75*
G03*
X21209000Y36195000I-127000J0D01*
G01*
D14*
%TO.C,U3*%
X16176000Y21132000D02*
X14716000Y21132000D01*
X16176000Y17972000D02*
X14016000Y17972000D01*
X16176000Y17972000D02*
X16176000Y18902000D01*
X16176000Y21132000D02*
X16176000Y20202000D01*
%TO.C,D1*%
X80607000Y13573000D02*
X84907000Y13573000D01*
X84907000Y11573000D02*
X80607000Y11573000D01*
X80607000Y11573000D02*
X80607000Y13573000D01*
D11*
%TO.C,C55*%
X71247000Y20574000D02*
X71247000Y19558000D01*
X72771000Y19558000D02*
X72771000Y20574000D01*
X72771000Y17526000D02*
X72771000Y18542000D01*
X71247000Y18542000D02*
X71247000Y17526000D01*
X72771000Y20574000D02*
X71247000Y20574000D01*
X71247000Y17526000D02*
X72771000Y17526000D01*
X71374000Y17399000D02*
G75*
G03*
X71374000Y17399000I-127000J0D01*
G01*
%TO.C,R25*%
X68135500Y18288000D02*
X69151500Y18288000D01*
X69151500Y18288000D02*
X69151500Y19812000D01*
X66103500Y19812000D02*
X66103500Y18288000D01*
X67119500Y19812000D02*
X66103500Y19812000D01*
X69151500Y19812000D02*
X68135500Y19812000D01*
X66103500Y18288000D02*
X67119500Y18288000D01*
X66103500Y19812000D02*
G75*
G03*
X66103500Y19812000I-127000J0D01*
G01*
%TO.C,R27*%
X69151500Y21844000D02*
X68135500Y21844000D01*
X68135500Y20320000D02*
X69151500Y20320000D01*
X67119500Y21844000D02*
X66103500Y21844000D01*
X66103500Y21844000D02*
X66103500Y20320000D01*
X69151500Y20320000D02*
X69151500Y21844000D01*
X66103500Y20320000D02*
X67119500Y20320000D01*
X66103500Y21844000D02*
G75*
G03*
X66103500Y21844000I-127000J0D01*
G01*
%TO.C,R28*%
X70231000Y17018000D02*
X69215000Y17018000D01*
X72263000Y15494000D02*
X72263000Y17018000D01*
X69215000Y17018000D02*
X69215000Y15494000D01*
X71247000Y15494000D02*
X72263000Y15494000D01*
X69215000Y15494000D02*
X70231000Y15494000D01*
X72263000Y17018000D02*
X71247000Y17018000D01*
X69215000Y17018000D02*
G75*
G03*
X69215000Y17018000I-127000J0D01*
G01*
%TO.C,C21*%
X23622000Y34036000D02*
X23622000Y33020000D01*
X25146000Y36068000D02*
X23622000Y36068000D01*
X25146000Y35052000D02*
X25146000Y36068000D01*
X23622000Y36068000D02*
X23622000Y35052000D01*
X23622000Y33020000D02*
X25146000Y33020000D01*
X25146000Y33020000D02*
X25146000Y34036000D01*
X25273000Y36195000D02*
G75*
G03*
X25273000Y36195000I-127000J0D01*
G01*
%TO.C,C22*%
X78105000Y12573000D02*
X78105000Y11557000D01*
X79629000Y14605000D02*
X78105000Y14605000D01*
X79629000Y11557000D02*
X79629000Y12573000D01*
X79629000Y13589000D02*
X79629000Y14605000D01*
X78105000Y14605000D02*
X78105000Y13589000D01*
X78105000Y11557000D02*
X79629000Y11557000D01*
X79756000Y14732000D02*
G75*
G03*
X79756000Y14732000I-127000J0D01*
G01*
%TO.C,C36*%
X85788500Y16891000D02*
X86804500Y16891000D01*
X86804500Y18415000D02*
X85788500Y18415000D01*
X86804500Y16891000D02*
X86804500Y18415000D01*
X84772500Y18415000D02*
X83756500Y18415000D01*
X83756500Y16891000D02*
X84772500Y16891000D01*
X83756500Y18415000D02*
X83756500Y16891000D01*
X83756500Y18415000D02*
G75*
G03*
X83756500Y18415000I-127000J0D01*
G01*
%TO.C,F1*%
X78105000Y15938500D02*
X78105000Y14922500D01*
X78105000Y14922500D02*
X79629000Y14922500D01*
X78105000Y17970500D02*
X78105000Y16954500D01*
X79629000Y16954500D02*
X79629000Y17970500D01*
X79629000Y17970500D02*
X78105000Y17970500D01*
X79629000Y14922500D02*
X79629000Y15938500D01*
X78232000Y14795500D02*
G75*
G03*
X78232000Y14795500I-127000J0D01*
G01*
%TO.C,F2*%
X84772500Y20701000D02*
X83756500Y20701000D01*
X85788500Y19177000D02*
X86804500Y19177000D01*
X83756500Y19177000D02*
X84772500Y19177000D01*
X83756500Y20701000D02*
X83756500Y19177000D01*
X86804500Y20701000D02*
X85788500Y20701000D01*
X86804500Y19177000D02*
X86804500Y20701000D01*
X83756500Y20701000D02*
G75*
G03*
X83756500Y20701000I-127000J0D01*
G01*
D14*
%TO.C,D3*%
X86685000Y14113000D02*
X82385000Y14113000D01*
X82385000Y14113000D02*
X82385000Y16113000D01*
X82385000Y16113000D02*
X86685000Y16113000D01*
%TO.C,L2*%
X67181252Y15546000D02*
X66658748Y15546000D01*
X67181252Y16966000D02*
X66658748Y16966000D01*
%TO.C,L3*%
X61983252Y20776000D02*
X61460748Y20776000D01*
X61983252Y19356000D02*
X61460748Y19356000D01*
%TO.C,U6*%
X65183000Y14757000D02*
X67633000Y14757000D01*
X66983000Y11537000D02*
X65183000Y11537000D01*
D11*
%TO.C,C50*%
X55753000Y19367500D02*
X55753000Y20383500D01*
X54229000Y18351500D02*
X54229000Y17335500D01*
X55753000Y20383500D02*
X54229000Y20383500D01*
X55753000Y17335500D02*
X55753000Y18351500D01*
X54229000Y17335500D02*
X55753000Y17335500D01*
X54229000Y20383500D02*
X54229000Y19367500D01*
X54356000Y17208500D02*
G75*
G03*
X54356000Y17208500I-127000J0D01*
G01*
%TO.C,C49*%
X63119000Y13843000D02*
X63119000Y14859000D01*
X61595000Y14859000D02*
X61595000Y13843000D01*
X61595000Y11811000D02*
X63119000Y11811000D01*
X63119000Y11811000D02*
X63119000Y12827000D01*
X61595000Y12827000D02*
X61595000Y11811000D01*
X63119000Y14859000D02*
X61595000Y14859000D01*
X61722000Y11684000D02*
G75*
G03*
X61722000Y11684000I-127000J0D01*
G01*
%TO.C,C42*%
X56388000Y17335500D02*
X57912000Y17335500D01*
X57912000Y17335500D02*
X57912000Y18351500D01*
X56388000Y18351500D02*
X56388000Y17335500D01*
X57912000Y19367500D02*
X57912000Y20383500D01*
X57912000Y20383500D02*
X56388000Y20383500D01*
X56388000Y20383500D02*
X56388000Y19367500D01*
X56515000Y17208500D02*
G75*
G03*
X56515000Y17208500I-127000J0D01*
G01*
%TO.C,C52*%
X51181000Y20955000D02*
X51181000Y16891000D01*
X51181000Y16891000D02*
X52705000Y16891000D01*
X52705000Y16891000D02*
X52578000Y16891000D01*
X52705000Y20955000D02*
X51181000Y20955000D01*
X52705000Y16891000D02*
X52705000Y20955000D01*
%TO.C,C38*%
X59309000Y12890500D02*
X59309000Y11874500D01*
X59309000Y11874500D02*
X60833000Y11874500D01*
X60833000Y11874500D02*
X60833000Y12890500D01*
X60833000Y13906500D02*
X60833000Y14922500D01*
X59309000Y14922500D02*
X59309000Y13906500D01*
X60833000Y14922500D02*
X59309000Y14922500D01*
X59436000Y11747500D02*
G75*
G03*
X59436000Y11747500I-127000J0D01*
G01*
%TO.C,C51*%
X56261000Y12192000D02*
X57785000Y12192000D01*
X57785000Y12192000D02*
X57785000Y16256000D01*
X56261000Y16256000D02*
X56261000Y12192000D01*
X57785000Y16256000D02*
X56261000Y16256000D01*
X57785000Y12192000D02*
X57658000Y12192000D01*
%TO.C,C25*%
X62992000Y15621000D02*
X64516000Y15621000D01*
X62992000Y18669000D02*
X62992000Y17653000D01*
X64516000Y17653000D02*
X64516000Y18669000D01*
X64516000Y15621000D02*
X64516000Y16637000D01*
X62992000Y16637000D02*
X62992000Y15621000D01*
X64516000Y18669000D02*
X62992000Y18669000D01*
X64643000Y18796000D02*
G75*
G03*
X64643000Y18796000I-127000J0D01*
G01*
%TO.C,C44*%
X72644000Y29972000D02*
X72644000Y30988000D01*
X72644000Y27940000D02*
X72644000Y28956000D01*
X71120000Y28956000D02*
X71120000Y27940000D01*
X71120000Y27940000D02*
X72644000Y27940000D01*
X71120000Y30988000D02*
X71120000Y29972000D01*
X72644000Y30988000D02*
X71120000Y30988000D01*
X71247000Y27813000D02*
G75*
G03*
X71247000Y27813000I-127000J0D01*
G01*
%TO.C,C40*%
X73406000Y30988000D02*
X73406000Y29972000D01*
X74930000Y30988000D02*
X73406000Y30988000D01*
X73406000Y28956000D02*
X73406000Y27940000D01*
X74930000Y29972000D02*
X74930000Y30988000D01*
X73406000Y27940000D02*
X74930000Y27940000D01*
X74930000Y27940000D02*
X74930000Y28956000D01*
X73533000Y27813000D02*
G75*
G03*
X73533000Y27813000I-127000J0D01*
G01*
%TO.C,R24*%
X80010000Y24130000D02*
X80010000Y22606000D01*
X81026000Y24130000D02*
X80010000Y24130000D01*
X80010000Y22606000D02*
X81026000Y22606000D01*
X83058000Y24130000D02*
X82042000Y24130000D01*
X82042000Y22606000D02*
X83058000Y22606000D01*
X83058000Y22606000D02*
X83058000Y24130000D01*
X80010000Y24130000D02*
G75*
G03*
X80010000Y24130000I-127000J0D01*
G01*
%TO.C,C31*%
X71628000Y31305500D02*
X73152000Y31305500D01*
X71628000Y32321500D02*
X71628000Y31305500D01*
X73152000Y31305500D02*
X73152000Y32321500D01*
X71628000Y34353500D02*
X71628000Y33337500D01*
X73152000Y34353500D02*
X71628000Y34353500D01*
X73152000Y33337500D02*
X73152000Y34353500D01*
X73279000Y34480500D02*
G75*
G03*
X73279000Y34480500I-127000J0D01*
G01*
%TO.C,C27*%
X82677000Y27051000D02*
X82677000Y28575000D01*
X79629000Y28575000D02*
X79629000Y27051000D01*
X80645000Y28575000D02*
X79629000Y28575000D01*
X79629000Y27051000D02*
X80645000Y27051000D01*
X81661000Y27051000D02*
X82677000Y27051000D01*
X82677000Y28575000D02*
X81661000Y28575000D01*
X79629000Y28575000D02*
G75*
G03*
X79629000Y28575000I-127000J0D01*
G01*
%TO.C,C53*%
X54610000Y16129000D02*
X53086000Y16129000D01*
X53086000Y14097000D02*
X53086000Y13081000D01*
X54610000Y15113000D02*
X54610000Y16129000D01*
X53086000Y16129000D02*
X53086000Y15113000D01*
X54610000Y13081000D02*
X54610000Y14097000D01*
X53086000Y13081000D02*
X54610000Y13081000D01*
X54737000Y16256000D02*
G75*
G03*
X54737000Y16256000I-127000J0D01*
G01*
D14*
%TO.C,U8*%
X59679000Y18882000D02*
X62129000Y18882000D01*
X61479000Y15662000D02*
X59679000Y15662000D01*
D11*
%TO.C,U10*%
X58075000Y25465000D02*
X58750000Y25465000D01*
X58075000Y35815000D02*
X58075000Y35140000D01*
X68425000Y25465000D02*
X68425000Y26140000D01*
X58075000Y26040000D02*
X56800000Y26040000D01*
X68425000Y25465000D02*
X67750000Y25465000D01*
X58075000Y25465000D02*
X58075000Y26040000D01*
X58075000Y35815000D02*
X58750000Y35815000D01*
X68425000Y35815000D02*
X67750000Y35815000D01*
X68425000Y35815000D02*
X68425000Y35140000D01*
%TO.C,R20*%
X78676500Y29083000D02*
X77660500Y29083000D01*
X75628500Y29083000D02*
X75628500Y27559000D01*
X77660500Y27559000D02*
X78676500Y27559000D01*
X76644500Y29083000D02*
X75628500Y29083000D01*
X78676500Y27559000D02*
X78676500Y29083000D01*
X75628500Y27559000D02*
X76644500Y27559000D01*
X75628500Y29083000D02*
G75*
G03*
X75628500Y29083000I-127000J0D01*
G01*
%TO.C,C29*%
X77343000Y17145000D02*
X77343000Y17018000D01*
X77343000Y17145000D02*
X73279000Y17145000D01*
X77343000Y15621000D02*
X77343000Y17145000D01*
X73279000Y15621000D02*
X77343000Y15621000D01*
X73279000Y17145000D02*
X73279000Y15621000D01*
%TO.C,J22*%
X48895000Y22352000D02*
X53975000Y22352000D01*
X53975000Y29972000D02*
X48895000Y29972000D01*
X53975000Y22352000D02*
X53975000Y29972000D01*
X48895000Y29972000D02*
X48895000Y22352000D01*
%TO.C,R23*%
X52133500Y31750000D02*
X51117500Y31750000D01*
X50101500Y31750000D02*
X49085500Y31750000D01*
X51117500Y30226000D02*
X52133500Y30226000D01*
X49085500Y30226000D02*
X50101500Y30226000D01*
X52133500Y30226000D02*
X52133500Y31750000D01*
X49085500Y31750000D02*
X49085500Y30226000D01*
X49085500Y31750000D02*
G75*
G03*
X49085500Y31750000I-127000J0D01*
G01*
%TO.C,C26*%
X81407000Y26416000D02*
X80391000Y26416000D01*
X79375000Y26416000D02*
X78359000Y26416000D01*
X81407000Y24892000D02*
X81407000Y26416000D01*
X78359000Y26416000D02*
X78359000Y24892000D01*
X80391000Y24892000D02*
X81407000Y24892000D01*
X78359000Y24892000D02*
X79375000Y24892000D01*
X78359000Y26416000D02*
G75*
G03*
X78359000Y26416000I-127000J0D01*
G01*
%TO.C,C28*%
X81661000Y29083000D02*
X82677000Y29083000D01*
X80645000Y30607000D02*
X79629000Y30607000D01*
X82677000Y30607000D02*
X81661000Y30607000D01*
X82677000Y29083000D02*
X82677000Y30607000D01*
X79629000Y30607000D02*
X79629000Y29083000D01*
X79629000Y29083000D02*
X80645000Y29083000D01*
X79629000Y30607000D02*
G75*
G03*
X79629000Y30607000I-127000J0D01*
G01*
%TO.C,C30*%
X49276000Y37719000D02*
X49276000Y36195000D01*
X52324000Y37719000D02*
X51308000Y37719000D01*
X50292000Y37719000D02*
X49276000Y37719000D01*
X52324000Y36195000D02*
X52324000Y37719000D01*
X51308000Y36195000D02*
X52324000Y36195000D01*
X49276000Y36195000D02*
X50292000Y36195000D01*
X49276000Y37719000D02*
G75*
G03*
X49276000Y37719000I-127000J0D01*
G01*
%TO.C,C33*%
X52959000Y37719000D02*
X52959000Y36195000D01*
X52959000Y36195000D02*
X53975000Y36195000D01*
X54991000Y36195000D02*
X56007000Y36195000D01*
X53975000Y37719000D02*
X52959000Y37719000D01*
X56007000Y37719000D02*
X54991000Y37719000D01*
X56007000Y36195000D02*
X56007000Y37719000D01*
X56261000Y36195000D02*
G75*
G03*
X56261000Y36195000I-127000J0D01*
G01*
%TO.C,C34*%
X53975000Y32321500D02*
X53975000Y33337500D01*
X53975000Y30289500D02*
X53975000Y31305500D01*
X52451000Y31305500D02*
X52451000Y30289500D01*
X52451000Y33337500D02*
X52451000Y32321500D01*
X52451000Y30289500D02*
X53975000Y30289500D01*
X53975000Y33337500D02*
X52451000Y33337500D01*
X52578000Y30162500D02*
G75*
G03*
X52578000Y30162500I-127000J0D01*
G01*
%TO.C,C35*%
X61976000Y21463000D02*
X62992000Y21463000D01*
X62992000Y22987000D02*
X61976000Y22987000D01*
X61976000Y22987000D02*
X61976000Y21463000D01*
X65024000Y21463000D02*
X65024000Y22987000D01*
X64008000Y21463000D02*
X65024000Y21463000D01*
X65024000Y22987000D02*
X64008000Y22987000D01*
X65278000Y21463000D02*
G75*
G03*
X65278000Y21463000I-127000J0D01*
G01*
%TO.C,C39*%
X63627000Y39243000D02*
X62611000Y39243000D01*
X65659000Y37719000D02*
X65659000Y39243000D01*
X64643000Y37719000D02*
X65659000Y37719000D01*
X62611000Y37719000D02*
X63627000Y37719000D01*
X62611000Y39243000D02*
X62611000Y37719000D01*
X65659000Y39243000D02*
X64643000Y39243000D01*
X62611000Y39243000D02*
G75*
G03*
X62611000Y39243000I-127000J0D01*
G01*
%TO.C,C43*%
X79629000Y31242000D02*
X80645000Y31242000D01*
X82677000Y32766000D02*
X81661000Y32766000D01*
X79629000Y32766000D02*
X79629000Y31242000D01*
X82677000Y31242000D02*
X82677000Y32766000D01*
X81661000Y31242000D02*
X82677000Y31242000D01*
X80645000Y32766000D02*
X79629000Y32766000D01*
X79629000Y32766000D02*
G75*
G03*
X79629000Y32766000I-127000J0D01*
G01*
%TO.C,C47*%
X77724000Y20955000D02*
X77724000Y21971000D01*
X76200000Y20955000D02*
X77724000Y20955000D01*
X76200000Y24003000D02*
X76200000Y22987000D01*
X77724000Y22987000D02*
X77724000Y24003000D01*
X76200000Y21971000D02*
X76200000Y20955000D01*
X77724000Y24003000D02*
X76200000Y24003000D01*
X77851000Y24130000D02*
G75*
G03*
X77851000Y24130000I-127000J0D01*
G01*
%TO.C,L1*%
X73787000Y31496000D02*
X73787000Y34290000D01*
X73787000Y34290000D02*
X75311000Y34290000D01*
X78359000Y31496000D02*
X76835000Y31496000D01*
X76835000Y34290000D02*
X78359000Y34290000D01*
X76835000Y34290000D02*
X78359000Y34290000D01*
X78359000Y34290000D02*
X78359000Y31496000D01*
X75311000Y31496000D02*
X73787000Y31496000D01*
X78665605Y31369000D02*
G75*
G03*
X78665605Y31369000I-179605J0D01*
G01*
%TO.C,R21*%
X76708000Y25146000D02*
X77724000Y25146000D01*
X77724000Y26670000D02*
X76708000Y26670000D01*
X75692000Y26670000D02*
X74676000Y26670000D01*
X74676000Y26670000D02*
X74676000Y25146000D01*
X77724000Y25146000D02*
X77724000Y26670000D01*
X74676000Y25146000D02*
X75692000Y25146000D01*
X74676000Y26670000D02*
G75*
G03*
X74676000Y26670000I-127000J0D01*
G01*
%TO.C,U11*%
X70765000Y22251000D02*
X70765000Y25501000D01*
X73840000Y22251000D02*
X73840000Y21176000D01*
X74015000Y22251000D02*
X74015000Y25501000D01*
X74015000Y22251000D02*
X73840000Y22251000D01*
X70765000Y25501000D02*
X71040000Y25501000D01*
X70765000Y22251000D02*
X71040000Y22251000D01*
X74015000Y25501000D02*
X73740000Y25501000D01*
X73640000Y22876000D02*
G75*
G03*
X73640000Y22876000I-250000J0D01*
G01*
%TO.C,C23*%
X23114000Y35052000D02*
X23114000Y36068000D01*
X21590000Y34036000D02*
X21590000Y33020000D01*
X23114000Y36068000D02*
X21590000Y36068000D01*
X23114000Y33020000D02*
X23114000Y34036000D01*
X21590000Y33020000D02*
X23114000Y33020000D01*
X21590000Y36068000D02*
X21590000Y35052000D01*
X23241000Y36195000D02*
G75*
G03*
X23241000Y36195000I-127000J0D01*
G01*
%TO.C,C24*%
X18796000Y33083500D02*
X18796000Y34099500D01*
X17272000Y34099500D02*
X17272000Y33083500D01*
X17272000Y33083500D02*
X18796000Y33083500D01*
X18796000Y36131500D02*
X17272000Y36131500D01*
X17272000Y36131500D02*
X17272000Y35115500D01*
X18796000Y35115500D02*
X18796000Y36131500D01*
X18923000Y36258500D02*
G75*
G03*
X18923000Y36258500I-127000J0D01*
G01*
%TO.C,C32*%
X68707000Y14668500D02*
X68707000Y13652500D01*
X68707000Y11620500D02*
X70231000Y11620500D01*
X70231000Y14668500D02*
X68707000Y14668500D01*
X68707000Y12636500D02*
X68707000Y11620500D01*
X70231000Y13652500D02*
X70231000Y14668500D01*
X70231000Y11620500D02*
X70231000Y12636500D01*
X70358000Y14795500D02*
G75*
G03*
X70358000Y14795500I-127000J0D01*
G01*
%TO.C,C45*%
X73279000Y12065000D02*
X77343000Y12065000D01*
X77343000Y13589000D02*
X77343000Y13462000D01*
X73279000Y13589000D02*
X73279000Y12065000D01*
X77343000Y12065000D02*
X77343000Y13589000D01*
X77343000Y13589000D02*
X73279000Y13589000D01*
%TO.C,C48*%
X71120000Y14732000D02*
X71120000Y13716000D01*
X71120000Y11684000D02*
X72644000Y11684000D01*
X72644000Y13716000D02*
X72644000Y14732000D01*
X71120000Y12700000D02*
X71120000Y11684000D01*
X72644000Y11684000D02*
X72644000Y12700000D01*
X72644000Y14732000D02*
X71120000Y14732000D01*
X72771000Y14859000D02*
G75*
G03*
X72771000Y14859000I-127000J0D01*
G01*
%TO.C,C54*%
X49657000Y17272000D02*
X49657000Y18288000D01*
X49657000Y19304000D02*
X49657000Y20320000D01*
X48133000Y17272000D02*
X49657000Y17272000D01*
X49657000Y20320000D02*
X48133000Y20320000D01*
X48133000Y18288000D02*
X48133000Y17272000D01*
X48133000Y20320000D02*
X48133000Y19304000D01*
X49784000Y20447000D02*
G75*
G03*
X49784000Y20447000I-127000J0D01*
G01*
%TO.C,R15*%
X28511500Y37338000D02*
X28511500Y38862000D01*
X27495500Y37338000D02*
X28511500Y37338000D01*
X25463500Y38862000D02*
X25463500Y37338000D01*
X28511500Y38862000D02*
X27495500Y38862000D01*
X26479500Y38862000D02*
X25463500Y38862000D01*
X25463500Y37338000D02*
X26479500Y37338000D01*
X25463500Y38862000D02*
G75*
G03*
X25463500Y38862000I-127000J0D01*
G01*
%TO.C,R19*%
X21653500Y38862000D02*
X21653500Y37338000D01*
X23685500Y37338000D02*
X24701500Y37338000D01*
X21653500Y37338000D02*
X22669500Y37338000D01*
X24701500Y37338000D02*
X24701500Y38862000D01*
X22669500Y38862000D02*
X21653500Y38862000D01*
X24701500Y38862000D02*
X23685500Y38862000D01*
X21653500Y38862000D02*
G75*
G03*
X21653500Y38862000I-127000J0D01*
G01*
%TO.C,R22*%
X20891500Y37338000D02*
X20891500Y38862000D01*
X17843500Y38862000D02*
X17843500Y37338000D01*
X17843500Y37338000D02*
X18859500Y37338000D01*
X19875500Y37338000D02*
X20891500Y37338000D01*
X20891500Y38862000D02*
X19875500Y38862000D01*
X18859500Y38862000D02*
X17843500Y38862000D01*
X17843500Y38862000D02*
G75*
G03*
X17843500Y38862000I-127000J0D01*
G01*
%TD*%
M02*
