  0
SECTION
  2
HEADER
  9
$ANGBASE
  50
0.0
  9
$ANGDIR
  70
1
  9
$MEASUREMENT
  70
0
  0
ENDSEC
  0
SECTION
  2
TABLES
  0
TABLE
  2
LTYPE
  70
4
  0
LTYPE
  5
40F
  2
CONTINUOUS
  70
0
  3
Solid line
  72
65
  73
0
  40
0.0
  0
LTYPE
  5
410
  2
DASHDOT
 70
0
  3
Dash Dot ____ _ ____ _
 72
65
 73
4
 40
2.0
 49
1.25
 49
-0.25
 49
0.25
 49
-0.25
  0
LTYPE
  5
411
  2
DASHED
 70
0
  3
Dashed __ __ __ __ __
 72
65
 73
2
 40
0.75
 49
0.5
 49
-0.25
  0
LTYPE
  5
43B
  2
DOTTED
 70
0
  3
Dotted .  .  .  .
 72
65
 73
2
 40
0.2
 49
0.0
 49
-0.2
  0
ENDTAB
  0
TABLE
  2
STYLE
  70
4
  0
STYLE
  2
KICAD
  70
0
  40
0
  41
1
  42
1
  50
0
  71
0
  3
isocp.shx
  0
STYLE
  2
KICADB
  70
0
  40
0
  41
1
  42
1
  50
0
  71
0
  3
isocp.shx
  0
STYLE
  2
KICADI
  70
0
  40
0
  41
1
  42
1
  50
15
  71
0
  3
isocp.shx
  0
STYLE
  2
KICADBI
  70
0
  40
0
  41
1
  42
1
  50
15
  71
0
  3
isocp.shx
  0
ENDTAB
  0
TABLE
  2
LAYER
  70
1
  0
LAYER
  2
BLACK
  70
0
  62
7
  6
CONTINUOUS
  0
ENDTAB
  0
ENDSEC
  0
SECTION
  2
ENTITIES
0
LINE
8
BLACK
6
CONTINUOUS
10
0.980384
20
1.98289
11
0.980513
21
1.98291
0
LINE
8
BLACK
6
CONTINUOUS
10
0.980513
20
1.98291
11
0.980626
21
1.98284
0
LINE
8
BLACK
6
CONTINUOUS
10
0.980626
20
1.98284
11
0.98101
21
1.98277
0
LINE
8
BLACK
6
CONTINUOUS
10
0.98101
20
1.98277
11
0.981598
21
1.98228
0
LINE
8
BLACK
6
CONTINUOUS
10
0.981598
20
1.98228
11
0.982262
21
1.9819
0
LINE
8
BLACK
6
CONTINUOUS
10
0.982262
20
1.9819
11
0.982353
21
1.98165
0
LINE
8
BLACK
6
CONTINUOUS
10
0.982353
20
1.98165
11
0.982557
21
1.98148
0
LINE
8
BLACK
6
CONTINUOUS
10
0.982557
20
1.98148
11
0.98269
21
1.98072
0
LINE
8
BLACK
6
CONTINUOUS
10
0.98269
20
1.98072
11
0.982953
21
1.98
0
LINE
8
BLACK
6
CONTINUOUS
10
0.982953
20
1.98
11
0.982953
21
1.65354
0
LINE
8
BLACK
6
CONTINUOUS
10
0.982953
20
1.65354
11
1.10913
21
1.65354
0
LINE
8
BLACK
6
CONTINUOUS
10
1.10913
20
1.65354
11
1.11215
21
1.65294
0
LINE
8
BLACK
6
CONTINUOUS
10
1.11215
20
1.65294
11
1.1147
21
1.65124
0
LINE
8
BLACK
6
CONTINUOUS
10
1.1147
20
1.65124
11
1.11641
21
1.64868
0
LINE
8
BLACK
6
CONTINUOUS
10
1.11641
20
1.64868
11
1.11701
21
1.64567
0
LINE
8
BLACK
6
CONTINUOUS
10
1.11701
20
1.64567
11
1.11701
21
1.6063
0
LINE
8
BLACK
6
CONTINUOUS
10
1.11701
20
1.6063
11
1.11641
21
1.60329
0
LINE
8
BLACK
6
CONTINUOUS
10
1.11641
20
1.60329
11
1.1147
21
1.60073
0
LINE
8
BLACK
6
CONTINUOUS
10
1.1147
20
1.60073
11
1.11215
21
1.59902
0
LINE
8
BLACK
6
CONTINUOUS
10
1.11215
20
1.59902
11
1.10913
21
1.59843
0
LINE
8
BLACK
6
CONTINUOUS
10
1.10913
20
1.59843
11
0.982953
21
1.59843
0
LINE
8
BLACK
6
CONTINUOUS
10
0.982953
20
1.59843
11
0.982953
21
0.401575
0
LINE
8
BLACK
6
CONTINUOUS
10
0.982953
20
0.401575
11
1.10913
21
0.401575
0
LINE
8
BLACK
6
CONTINUOUS
10
1.10913
20
0.401575
11
1.11215
21
0.400975
0
LINE
8
BLACK
6
CONTINUOUS
10
1.11215
20
0.400975
11
1.1147
21
0.399269
0
LINE
8
BLACK
6
CONTINUOUS
10
1.1147
20
0.399269
11
1.11641
21
0.396714
0
LINE
8
BLACK
6
CONTINUOUS
10
1.11641
20
0.396714
11
1.11701
21
0.393701
0
LINE
8
BLACK
6
CONTINUOUS
10
1.11701
20
0.393701
11
1.11701
21
0.354331
0
LINE
8
BLACK
6
CONTINUOUS
10
1.11701
20
0.354331
11
1.11641
21
0.351317
0
LINE
8
BLACK
6
CONTINUOUS
10
1.11641
20
0.351317
11
1.1147
21
0.348763
0
LINE
8
BLACK
6
CONTINUOUS
10
1.1147
20
0.348763
11
1.11215
21
0.347056
0
LINE
8
BLACK
6
CONTINUOUS
10
1.11215
20
0.347056
11
1.10913
21
0.346457
0
LINE
8
BLACK
6
CONTINUOUS
10
1.10913
20
0.346457
11
0.982953
21
0.346457
0
LINE
8
BLACK
6
CONTINUOUS
10
0.982953
20
0.346457
11
0.982953
21
0.02
0
LINE
8
BLACK
6
CONTINUOUS
10
0.982953
20
0.02
11
0.982885
21
0.0196165
0
LINE
8
BLACK
6
CONTINUOUS
10
0.982885
20
0.0196165
11
0.982908
21
0.0194872
0
LINE
8
BLACK
6
CONTINUOUS
10
0.982908
20
0.0194872
11
0.982842
21
0.0193736
0
LINE
8
BLACK
6
CONTINUOUS
10
0.982842
20
0.0193736
11
0.982775
21
0.0189901
0
LINE
8
BLACK
6
CONTINUOUS
10
0.982775
20
0.0189901
11
0.982282
21
0.0184024
0
LINE
8
BLACK
6
CONTINUOUS
10
0.982282
20
0.0184024
11
0.981898
21
0.0177381
0
LINE
8
BLACK
6
CONTINUOUS
10
0.981898
20
0.0177381
11
0.981648
21
0.017647
0
LINE
8
BLACK
6
CONTINUOUS
10
0.981648
20
0.017647
11
0.981476
21
0.0174428
0
LINE
8
BLACK
6
CONTINUOUS
10
0.981476
20
0.0174428
11
0.980721
21
0.0173096
0
LINE
8
BLACK
6
CONTINUOUS
10
0.980721
20
0.0173096
11
0.98
21
0.0170472
0
LINE
8
BLACK
6
CONTINUOUS
10
0.98
20
0.0170472
11
0.02
21
0.0170472
0
LINE
8
BLACK
6
CONTINUOUS
10
0.02
20
0.0170472
11
0.0196165
21
0.0171149
0
LINE
8
BLACK
6
CONTINUOUS
10
0.0196165
20
0.0171149
11
0.0194872
21
0.0170921
0
LINE
8
BLACK
6
CONTINUOUS
10
0.0194872
20
0.0170921
11
0.0193736
21
0.0171577
0
LINE
8
BLACK
6
CONTINUOUS
10
0.0193736
20
0.0171577
11
0.0189901
21
0.0172253
0
LINE
8
BLACK
6
CONTINUOUS
10
0.0189901
20
0.0172253
11
0.0184024
21
0.0177185
0
LINE
8
BLACK
6
CONTINUOUS
10
0.0184024
20
0.0177185
11
0.0177381
21
0.018102
0
LINE
8
BLACK
6
CONTINUOUS
10
0.0177381
20
0.018102
11
0.017647
21
0.0183524
0
LINE
8
BLACK
6
CONTINUOUS
10
0.017647
20
0.0183524
11
0.0174428
21
0.0185236
0
LINE
8
BLACK
6
CONTINUOUS
10
0.0174428
20
0.0185236
11
0.0173096
21
0.0192792
0
LINE
8
BLACK
6
CONTINUOUS
10
0.0173096
20
0.0192792
11
0.0170472
21
0.02
0
LINE
8
BLACK
6
CONTINUOUS
10
0.0170472
20
0.02
11
0.0170472
21
1.98
0
LINE
8
BLACK
6
CONTINUOUS
10
0.0170472
20
1.98
11
0.0171149
21
1.98038
0
LINE
8
BLACK
6
CONTINUOUS
10
0.0171149
20
1.98038
11
0.0170921
21
1.98051
0
LINE
8
BLACK
6
CONTINUOUS
10
0.0170921
20
1.98051
11
0.0171577
21
1.98063
0
LINE
8
BLACK
6
CONTINUOUS
10
0.0171577
20
1.98063
11
0.0172253
21
1.98101
0
LINE
8
BLACK
6
CONTINUOUS
10
0.0172253
20
1.98101
11
0.0177185
21
1.9816
0
LINE
8
BLACK
6
CONTINUOUS
10
0.0177185
20
1.9816
11
0.018102
21
1.98226
0
LINE
8
BLACK
6
CONTINUOUS
10
0.018102
20
1.98226
11
0.0183524
21
1.98235
0
LINE
8
BLACK
6
CONTINUOUS
10
0.0183524
20
1.98235
11
0.0185236
21
1.98256
0
LINE
8
BLACK
6
CONTINUOUS
10
0.0185236
20
1.98256
11
0.0192792
21
1.98269
0
LINE
8
BLACK
6
CONTINUOUS
10
0.0192792
20
1.98269
11
0.02
21
1.98295
0
LINE
8
BLACK
6
CONTINUOUS
10
0.02
20
1.98295
11
0.98
21
1.98295
0
LINE
8
BLACK
6
CONTINUOUS
10
0.98
20
1.98295
11
0.980384
21
1.98289
0
LINE
8
BLACK
6
CONTINUOUS
10
3.41492
20
0.325098
11
3.42877
21
0.322656
0
LINE
8
BLACK
6
CONTINUOUS
10
3.42877
20
0.322656
11
3.44226
21
0.318684
0
LINE
8
BLACK
6
CONTINUOUS
10
3.44226
20
0.318684
11
3.45523
21
0.313234
0
LINE
8
BLACK
6
CONTINUOUS
10
3.45523
20
0.313234
11
3.46751
21
0.306372
0
LINE
8
BLACK
6
CONTINUOUS
10
3.46751
20
0.306372
11
3.47894
21
0.298184
0
LINE
8
BLACK
6
CONTINUOUS
10
3.47894
20
0.298184
11
3.48939
21
0.288773
0
LINE
8
BLACK
6
CONTINUOUS
10
3.48939
20
0.288773
11
3.49873
21
0.278255
0
LINE
8
BLACK
6
CONTINUOUS
10
3.49873
20
0.278255
11
3.50684
21
0.266761
0
LINE
8
BLACK
6
CONTINUOUS
10
3.50684
20
0.266761
11
3.51362
21
0.254436
0
LINE
8
BLACK
6
CONTINUOUS
10
3.51362
20
0.254436
11
3.51898
21
0.241432
0
LINE
8
BLACK
6
CONTINUOUS
10
3.51898
20
0.241432
11
3.52285
21
0.227912
0
LINE
8
BLACK
6
CONTINUOUS
10
3.52285
20
0.227912
11
3.5252
21
0.214043
0
LINE
8
BLACK
6
CONTINUOUS
10
3.5252
20
0.214043
11
3.52598
21
0.2
0
LINE
8
BLACK
6
CONTINUOUS
10
3.52598
20
0.2
11
3.52594
21
0.196482
0
LINE
8
BLACK
6
CONTINUOUS
10
3.52594
20
0.196482
11
3.52476
21
0.182466
0
LINE
8
BLACK
6
CONTINUOUS
10
3.52476
20
0.182466
11
3.52203
21
0.168669
0
LINE
8
BLACK
6
CONTINUOUS
10
3.52203
20
0.168669
11
3.51777
21
0.155262
0
LINE
8
BLACK
6
CONTINUOUS
10
3.51777
20
0.155262
11
3.51205
21
0.142413
0
LINE
8
BLACK
6
CONTINUOUS
10
3.51205
20
0.142413
11
3.50493
21
0.130281
0
LINE
8
BLACK
6
CONTINUOUS
10
3.50493
20
0.130281
11
3.49651
21
0.119019
0
LINE
8
BLACK
6
CONTINUOUS
10
3.49651
20
0.119019
11
3.48688
21
0.108766
0
LINE
8
BLACK
6
CONTINUOUS
10
3.48688
20
0.108766
11
3.47617
21
0.0996498
0
LINE
8
BLACK
6
CONTINUOUS
10
3.47617
20
0.0996498
11
3.46451
21
0.0917846
0
LINE
8
BLACK
6
CONTINUOUS
10
3.46451
20
0.0917846
11
3.45204
21
0.0852682
0
LINE
8
BLACK
6
CONTINUOUS
10
3.45204
20
0.0852682
11
3.43893
21
0.0801819
0
LINE
8
BLACK
6
CONTINUOUS
10
3.43893
20
0.0801819
11
3.42533
21
0.0765889
0
LINE
8
BLACK
6
CONTINUOUS
10
3.42533
20
0.0765889
11
3.41142
21
0.0745343
0
LINE
8
BLACK
6
CONTINUOUS
10
3.41142
20
0.0745343
11
3.39736
21
0.0740434
0
LINE
8
BLACK
6
CONTINUOUS
10
3.39736
20
0.0740434
11
3.38334
21
0.0751224
0
LINE
8
BLACK
6
CONTINUOUS
10
3.38334
20
0.0751224
11
3.36952
21
0.077758
0
LINE
8
BLACK
6
CONTINUOUS
10
3.36952
20
0.077758
11
3.35609
21
0.0819172
0
LINE
8
BLACK
6
CONTINUOUS
10
3.35609
20
0.0819172
11
3.3432
21
0.0875482
0
LINE
8
BLACK
6
CONTINUOUS
10
3.3432
20
0.0875482
11
3.33102
21
0.0945809
0
LINE
8
BLACK
6
CONTINUOUS
10
3.33102
20
0.0945809
11
3.31969
21
0.102927
0
LINE
8
BLACK
6
CONTINUOUS
10
3.31969
20
0.102927
11
3.30937
21
0.112484
0
LINE
8
BLACK
6
CONTINUOUS
10
3.30937
20
0.112484
11
3.30018
21
0.123131
0
LINE
8
BLACK
6
CONTINUOUS
10
3.30018
20
0.123131
11
3.29224
21
0.134737
0
LINE
8
BLACK
6
CONTINUOUS
10
3.29224
20
0.134737
11
3.28563
21
0.147156
0
LINE
8
BLACK
6
CONTINUOUS
10
3.28563
20
0.147156
11
3.28046
21
0.160233
0
LINE
8
BLACK
6
CONTINUOUS
10
3.28046
20
0.160233
11
3.27677
21
0.173806
0
LINE
8
BLACK
6
CONTINUOUS
10
3.27677
20
0.173806
11
3.27462
21
0.187706
0
LINE
8
BLACK
6
CONTINUOUS
10
3.27462
20
0.187706
11
3.27403
21
0.201759
0
LINE
8
BLACK
6
CONTINUOUS
10
3.27403
20
0.201759
11
3.27501
21
0.21579
0
LINE
8
BLACK
6
CONTINUOUS
10
3.27501
20
0.21579
11
3.27755
21
0.229624
0
LINE
8
BLACK
6
CONTINUOUS
10
3.27755
20
0.229624
11
3.28161
21
0.243089
0
LINE
8
BLACK
6
CONTINUOUS
10
3.28161
20
0.243089
11
3.28715
21
0.256017
0
LINE
8
BLACK
6
CONTINUOUS
10
3.28715
20
0.256017
11
3.2941
21
0.268247
0
LINE
8
BLACK
6
CONTINUOUS
10
3.2941
20
0.268247
11
3.30237
21
0.279626
0
LINE
8
BLACK
6
CONTINUOUS
10
3.30237
20
0.279626
11
3.31185
21
0.290012
0
LINE
8
BLACK
6
CONTINUOUS
10
3.31185
20
0.290012
11
3.32244
21
0.299277
0
LINE
8
BLACK
6
CONTINUOUS
10
3.32244
20
0.299277
11
3.33399
21
0.307304
0
LINE
8
BLACK
6
CONTINUOUS
10
3.33399
20
0.307304
11
3.34636
21
0.313994
0
LINE
8
BLACK
6
CONTINUOUS
10
3.34636
20
0.313994
11
3.3594
21
0.319263
0
LINE
8
BLACK
6
CONTINUOUS
10
3.3594
20
0.319263
11
3.37295
21
0.323045
0
LINE
8
BLACK
6
CONTINUOUS
10
3.37295
20
0.323045
11
3.38683
21
0.325294
0
LINE
8
BLACK
6
CONTINUOUS
10
3.38683
20
0.325294
11
3.40088
21
0.325981
0
LINE
8
BLACK
6
CONTINUOUS
10
3.40088
20
0.325981
11
3.41492
21
0.325098
0
LINE
8
BLACK
6
CONTINUOUS
10
1.33294
20
0.351317
11
1.33124
21
0.348763
0
LINE
8
BLACK
6
CONTINUOUS
10
1.33124
20
0.348763
11
1.32868
21
0.347056
0
LINE
8
BLACK
6
CONTINUOUS
10
1.32868
20
0.347056
11
1.32567
21
0.346457
0
LINE
8
BLACK
6
CONTINUOUS
10
1.32567
20
0.346457
11
1.19575
21
0.346457
0
LINE
8
BLACK
6
CONTINUOUS
10
1.19575
20
0.346457
11
1.19273
21
0.347056
0
LINE
8
BLACK
6
CONTINUOUS
10
1.19273
20
0.347056
11
1.19018
21
0.348763
0
LINE
8
BLACK
6
CONTINUOUS
10
1.19018
20
0.348763
11
1.18847
21
0.351317
0
LINE
8
BLACK
6
CONTINUOUS
10
1.18847
20
0.351317
11
1.18787
21
0.354331
0
LINE
8
BLACK
6
CONTINUOUS
10
1.18787
20
0.354331
11
1.18787
21
0.393701
0
LINE
8
BLACK
6
CONTINUOUS
10
1.18787
20
0.393701
11
1.18847
21
0.396714
0
LINE
8
BLACK
6
CONTINUOUS
10
1.18847
20
0.396714
11
1.19018
21
0.399269
0
LINE
8
BLACK
6
CONTINUOUS
10
1.19018
20
0.399269
11
1.19273
21
0.400975
0
LINE
8
BLACK
6
CONTINUOUS
10
1.19273
20
0.400975
11
1.19575
21
0.401575
0
LINE
8
BLACK
6
CONTINUOUS
10
1.19575
20
0.401575
11
1.27843
21
0.401575
0
LINE
8
BLACK
6
CONTINUOUS
10
1.27843
20
0.401575
11
1.27843
21
0.484252
0
LINE
8
BLACK
6
CONTINUOUS
10
1.27843
20
0.484252
11
1.27902
21
0.487265
0
LINE
8
BLACK
6
CONTINUOUS
10
1.27902
20
0.487265
11
1.28073
21
0.48982
0
LINE
8
BLACK
6
CONTINUOUS
10
1.28073
20
0.48982
11
1.28329
21
0.491527
0
LINE
8
BLACK
6
CONTINUOUS
10
1.28329
20
0.491527
11
1.2863
21
0.492126
0
LINE
8
BLACK
6
CONTINUOUS
10
1.2863
20
0.492126
11
1.32567
21
0.492126
0
LINE
8
BLACK
6
CONTINUOUS
10
1.32567
20
0.492126
11
1.32868
21
0.491527
0
LINE
8
BLACK
6
CONTINUOUS
10
1.32868
20
0.491527
11
1.33124
21
0.48982
0
LINE
8
BLACK
6
CONTINUOUS
10
1.33124
20
0.48982
11
1.33294
21
0.487265
0
LINE
8
BLACK
6
CONTINUOUS
10
1.33294
20
0.487265
11
1.33354
21
0.484252
0
LINE
8
BLACK
6
CONTINUOUS
10
1.33354
20
0.484252
11
1.33354
21
0.354331
0
LINE
8
BLACK
6
CONTINUOUS
10
1.33354
20
0.354331
11
1.33294
21
0.351317
0
LINE
8
BLACK
6
CONTINUOUS
10
1.80916
20
0.434361
11
1.81171
21
0.432654
0
LINE
8
BLACK
6
CONTINUOUS
10
1.81171
20
0.432654
11
1.81342
21
0.4301
0
LINE
8
BLACK
6
CONTINUOUS
10
1.81342
20
0.4301
11
1.81402
21
0.427087
0
LINE
8
BLACK
6
CONTINUOUS
10
1.81402
20
0.427087
11
1.81402
21
0.387717
0
LINE
8
BLACK
6
CONTINUOUS
10
1.81402
20
0.387717
11
1.81342
21
0.384703
0
LINE
8
BLACK
6
CONTINUOUS
10
1.81342
20
0.384703
11
1.81171
21
0.382149
0
LINE
8
BLACK
6
CONTINUOUS
10
1.81171
20
0.382149
11
1.80916
21
0.380442
0
LINE
8
BLACK
6
CONTINUOUS
10
1.80916
20
0.380442
11
1.80614
21
0.379843
0
LINE
8
BLACK
6
CONTINUOUS
10
1.80614
20
0.379843
11
1.65654
21
0.379843
0
LINE
8
BLACK
6
CONTINUOUS
10
1.65654
20
0.379843
11
1.65352
21
0.380442
0
LINE
8
BLACK
6
CONTINUOUS
10
1.65352
20
0.380442
11
1.65097
21
0.382149
0
LINE
8
BLACK
6
CONTINUOUS
10
1.65097
20
0.382149
11
1.64926
21
0.384703
0
LINE
8
BLACK
6
CONTINUOUS
10
1.64926
20
0.384703
11
1.64866
21
0.387717
0
LINE
8
BLACK
6
CONTINUOUS
10
1.64866
20
0.387717
11
1.64866
21
0.427087
0
LINE
8
BLACK
6
CONTINUOUS
10
1.64866
20
0.427087
11
1.64926
21
0.4301
0
LINE
8
BLACK
6
CONTINUOUS
10
1.64926
20
0.4301
11
1.65097
21
0.432654
0
LINE
8
BLACK
6
CONTINUOUS
10
1.65097
20
0.432654
11
1.65352
21
0.434361
0
LINE
8
BLACK
6
CONTINUOUS
10
1.65352
20
0.434361
11
1.65654
21
0.434961
0
LINE
8
BLACK
6
CONTINUOUS
10
1.65654
20
0.434961
11
1.80614
21
0.434961
0
LINE
8
BLACK
6
CONTINUOUS
10
1.80614
20
0.434961
11
1.80916
21
0.434361
0
LINE
8
BLACK
6
CONTINUOUS
10
3.20679
20
0.495385
11
3.20935
21
0.493678
0
LINE
8
BLACK
6
CONTINUOUS
10
3.20935
20
0.493678
11
3.21105
21
0.491124
0
LINE
8
BLACK
6
CONTINUOUS
10
3.21105
20
0.491124
11
3.21165
21
0.48811
0
LINE
8
BLACK
6
CONTINUOUS
10
3.21165
20
0.48811
11
3.21165
21
0.387717
0
LINE
8
BLACK
6
CONTINUOUS
10
3.21165
20
0.387717
11
3.21105
21
0.384703
0
LINE
8
BLACK
6
CONTINUOUS
10
3.21105
20
0.384703
11
3.20935
21
0.382149
0
LINE
8
BLACK
6
CONTINUOUS
10
3.20935
20
0.382149
11
3.20679
21
0.380442
0
LINE
8
BLACK
6
CONTINUOUS
10
3.20679
20
0.380442
11
3.20378
21
0.379843
0
LINE
8
BLACK
6
CONTINUOUS
10
3.20378
20
0.379843
11
3.07386
21
0.379843
0
LINE
8
BLACK
6
CONTINUOUS
10
3.07386
20
0.379843
11
3.07084
21
0.380442
0
LINE
8
BLACK
6
CONTINUOUS
10
3.07084
20
0.380442
11
3.06829
21
0.382149
0
LINE
8
BLACK
6
CONTINUOUS
10
3.06829
20
0.382149
11
3.06658
21
0.384703
0
LINE
8
BLACK
6
CONTINUOUS
10
3.06658
20
0.384703
11
3.06598
21
0.387717
0
LINE
8
BLACK
6
CONTINUOUS
10
3.06598
20
0.387717
11
3.06598
21
0.48811
0
LINE
8
BLACK
6
CONTINUOUS
10
3.06598
20
0.48811
11
3.06658
21
0.491124
0
LINE
8
BLACK
6
CONTINUOUS
10
3.06658
20
0.491124
11
3.06829
21
0.493678
0
LINE
8
BLACK
6
CONTINUOUS
10
3.06829
20
0.493678
11
3.07084
21
0.495385
0
LINE
8
BLACK
6
CONTINUOUS
10
3.07084
20
0.495385
11
3.07386
21
0.495984
0
LINE
8
BLACK
6
CONTINUOUS
10
3.07386
20
0.495984
11
3.20378
21
0.495984
0
LINE
8
BLACK
6
CONTINUOUS
10
3.20378
20
0.495984
11
3.20679
21
0.495385
0
LINE
8
BLACK
6
CONTINUOUS
10
2.51782
20
0.434361
11
2.52037
21
0.432654
0
LINE
8
BLACK
6
CONTINUOUS
10
2.52037
20
0.432654
11
2.52208
21
0.4301
0
LINE
8
BLACK
6
CONTINUOUS
10
2.52208
20
0.4301
11
2.52268
21
0.427087
0
LINE
8
BLACK
6
CONTINUOUS
10
2.52268
20
0.427087
11
2.52268
21
0.387717
0
LINE
8
BLACK
6
CONTINUOUS
10
2.52268
20
0.387717
11
2.52208
21
0.384703
0
LINE
8
BLACK
6
CONTINUOUS
10
2.52208
20
0.384703
11
2.52037
21
0.382149
0
LINE
8
BLACK
6
CONTINUOUS
10
2.52037
20
0.382149
11
2.51782
21
0.380442
0
LINE
8
BLACK
6
CONTINUOUS
10
2.51782
20
0.380442
11
2.5148
21
0.379843
0
LINE
8
BLACK
6
CONTINUOUS
10
2.5148
20
0.379843
11
2.3652
21
0.379843
0
LINE
8
BLACK
6
CONTINUOUS
10
2.3652
20
0.379843
11
2.36218
21
0.380442
0
LINE
8
BLACK
6
CONTINUOUS
10
2.36218
20
0.380442
11
2.35963
21
0.382149
0
LINE
8
BLACK
6
CONTINUOUS
10
2.35963
20
0.382149
11
2.35792
21
0.384703
0
LINE
8
BLACK
6
CONTINUOUS
10
2.35792
20
0.384703
11
2.35732
21
0.387717
0
LINE
8
BLACK
6
CONTINUOUS
10
2.35732
20
0.387717
11
2.35732
21
0.427087
0
LINE
8
BLACK
6
CONTINUOUS
10
2.35732
20
0.427087
11
2.35792
21
0.4301
0
LINE
8
BLACK
6
CONTINUOUS
10
2.35792
20
0.4301
11
2.35963
21
0.432654
0
LINE
8
BLACK
6
CONTINUOUS
10
2.35963
20
0.432654
11
2.36218
21
0.434361
0
LINE
8
BLACK
6
CONTINUOUS
10
2.36218
20
0.434361
11
2.3652
21
0.434961
0
LINE
8
BLACK
6
CONTINUOUS
10
2.3652
20
0.434961
11
2.5148
21
0.434961
0
LINE
8
BLACK
6
CONTINUOUS
10
2.5148
20
0.434961
11
2.51782
21
0.434361
0
LINE
8
BLACK
6
CONTINUOUS
10
2.2816
20
0.434361
11
2.28415
21
0.432654
0
LINE
8
BLACK
6
CONTINUOUS
10
2.28415
20
0.432654
11
2.28586
21
0.4301
0
LINE
8
BLACK
6
CONTINUOUS
10
2.28586
20
0.4301
11
2.28646
21
0.427087
0
LINE
8
BLACK
6
CONTINUOUS
10
2.28646
20
0.427087
11
2.28646
21
0.387717
0
LINE
8
BLACK
6
CONTINUOUS
10
2.28646
20
0.387717
11
2.28586
21
0.384703
0
LINE
8
BLACK
6
CONTINUOUS
10
2.28586
20
0.384703
11
2.28415
21
0.382149
0
LINE
8
BLACK
6
CONTINUOUS
10
2.28415
20
0.382149
11
2.2816
21
0.380442
0
LINE
8
BLACK
6
CONTINUOUS
10
2.2816
20
0.380442
11
2.27858
21
0.379843
0
LINE
8
BLACK
6
CONTINUOUS
10
2.27858
20
0.379843
11
2.12898
21
0.379843
0
LINE
8
BLACK
6
CONTINUOUS
10
2.12898
20
0.379843
11
2.12596
21
0.380442
0
LINE
8
BLACK
6
CONTINUOUS
10
2.12596
20
0.380442
11
2.12341
21
0.382149
0
LINE
8
BLACK
6
CONTINUOUS
10
2.12341
20
0.382149
11
2.1217
21
0.384703
0
LINE
8
BLACK
6
CONTINUOUS
10
2.1217
20
0.384703
11
2.1211
21
0.387717
0
LINE
8
BLACK
6
CONTINUOUS
10
2.1211
20
0.387717
11
2.1211
21
0.427087
0
LINE
8
BLACK
6
CONTINUOUS
10
2.1211
20
0.427087
11
2.1217
21
0.4301
0
LINE
8
BLACK
6
CONTINUOUS
10
2.1217
20
0.4301
11
2.12341
21
0.432654
0
LINE
8
BLACK
6
CONTINUOUS
10
2.12341
20
0.432654
11
2.12596
21
0.434361
0
LINE
8
BLACK
6
CONTINUOUS
10
2.12596
20
0.434361
11
2.12898
21
0.434961
0
LINE
8
BLACK
6
CONTINUOUS
10
2.12898
20
0.434961
11
2.27858
21
0.434961
0
LINE
8
BLACK
6
CONTINUOUS
10
2.27858
20
0.434961
11
2.2816
21
0.434361
0
LINE
8
BLACK
6
CONTINUOUS
10
2.75404
20
0.434361
11
2.75659
21
0.432654
0
LINE
8
BLACK
6
CONTINUOUS
10
2.75659
20
0.432654
11
2.7583
21
0.4301
0
LINE
8
BLACK
6
CONTINUOUS
10
2.7583
20
0.4301
11
2.7589
21
0.427087
0
LINE
8
BLACK
6
CONTINUOUS
10
2.7589
20
0.427087
11
2.7589
21
0.387717
0
LINE
8
BLACK
6
CONTINUOUS
10
2.7589
20
0.387717
11
2.7583
21
0.384703
0
LINE
8
BLACK
6
CONTINUOUS
10
2.7583
20
0.384703
11
2.75659
21
0.382149
0
LINE
8
BLACK
6
CONTINUOUS
10
2.75659
20
0.382149
11
2.75404
21
0.380442
0
LINE
8
BLACK
6
CONTINUOUS
10
2.75404
20
0.380442
11
2.75102
21
0.379843
0
LINE
8
BLACK
6
CONTINUOUS
10
2.75102
20
0.379843
11
2.60142
21
0.379843
0
LINE
8
BLACK
6
CONTINUOUS
10
2.60142
20
0.379843
11
2.5984
21
0.380442
0
LINE
8
BLACK
6
CONTINUOUS
10
2.5984
20
0.380442
11
2.59585
21
0.382149
0
LINE
8
BLACK
6
CONTINUOUS
10
2.59585
20
0.382149
11
2.59414
21
0.384703
0
LINE
8
BLACK
6
CONTINUOUS
10
2.59414
20
0.384703
11
2.59354
21
0.387717
0
LINE
8
BLACK
6
CONTINUOUS
10
2.59354
20
0.387717
11
2.59354
21
0.427087
0
LINE
8
BLACK
6
CONTINUOUS
10
2.59354
20
0.427087
11
2.59414
21
0.4301
0
LINE
8
BLACK
6
CONTINUOUS
10
2.59414
20
0.4301
11
2.59585
21
0.432654
0
LINE
8
BLACK
6
CONTINUOUS
10
2.59585
20
0.432654
11
2.5984
21
0.434361
0
LINE
8
BLACK
6
CONTINUOUS
10
2.5984
20
0.434361
11
2.60142
21
0.434961
0
LINE
8
BLACK
6
CONTINUOUS
10
2.60142
20
0.434961
11
2.75102
21
0.434961
0
LINE
8
BLACK
6
CONTINUOUS
10
2.75102
20
0.434961
11
2.75404
21
0.434361
0
LINE
8
BLACK
6
CONTINUOUS
10
2.99026
20
0.434361
11
2.99281
21
0.432654
0
LINE
8
BLACK
6
CONTINUOUS
10
2.99281
20
0.432654
11
2.99452
21
0.4301
0
LINE
8
BLACK
6
CONTINUOUS
10
2.99452
20
0.4301
11
2.99512
21
0.427087
0
LINE
8
BLACK
6
CONTINUOUS
10
2.99512
20
0.427087
11
2.99512
21
0.387717
0
LINE
8
BLACK
6
CONTINUOUS
10
2.99512
20
0.387717
11
2.99452
21
0.384703
0
LINE
8
BLACK
6
CONTINUOUS
10
2.99452
20
0.384703
11
2.99281
21
0.382149
0
LINE
8
BLACK
6
CONTINUOUS
10
2.99281
20
0.382149
11
2.99026
21
0.380442
0
LINE
8
BLACK
6
CONTINUOUS
10
2.99026
20
0.380442
11
2.98724
21
0.379843
0
LINE
8
BLACK
6
CONTINUOUS
10
2.98724
20
0.379843
11
2.83764
21
0.379843
0
LINE
8
BLACK
6
CONTINUOUS
10
2.83764
20
0.379843
11
2.83462
21
0.380442
0
LINE
8
BLACK
6
CONTINUOUS
10
2.83462
20
0.380442
11
2.83207
21
0.382149
0
LINE
8
BLACK
6
CONTINUOUS
10
2.83207
20
0.382149
11
2.83036
21
0.384703
0
LINE
8
BLACK
6
CONTINUOUS
10
2.83036
20
0.384703
11
2.82976
21
0.387717
0
LINE
8
BLACK
6
CONTINUOUS
10
2.82976
20
0.387717
11
2.82976
21
0.427087
0
LINE
8
BLACK
6
CONTINUOUS
10
2.82976
20
0.427087
11
2.83036
21
0.4301
0
LINE
8
BLACK
6
CONTINUOUS
10
2.83036
20
0.4301
11
2.83207
21
0.432654
0
LINE
8
BLACK
6
CONTINUOUS
10
2.83207
20
0.432654
11
2.83462
21
0.434361
0
LINE
8
BLACK
6
CONTINUOUS
10
2.83462
20
0.434361
11
2.83764
21
0.434961
0
LINE
8
BLACK
6
CONTINUOUS
10
2.83764
20
0.434961
11
2.98724
21
0.434961
0
LINE
8
BLACK
6
CONTINUOUS
10
2.98724
20
0.434961
11
2.99026
21
0.434361
0
LINE
8
BLACK
6
CONTINUOUS
10
1.57293
20
0.495385
11
1.57549
21
0.493678
0
LINE
8
BLACK
6
CONTINUOUS
10
1.57549
20
0.493678
11
1.5772
21
0.491124
0
LINE
8
BLACK
6
CONTINUOUS
10
1.5772
20
0.491124
11
1.5778
21
0.48811
0
LINE
8
BLACK
6
CONTINUOUS
10
1.5778
20
0.48811
11
1.5778
21
0.387717
0
LINE
8
BLACK
6
CONTINUOUS
10
1.5778
20
0.387717
11
1.5772
21
0.384703
0
LINE
8
BLACK
6
CONTINUOUS
10
1.5772
20
0.384703
11
1.57549
21
0.382149
0
LINE
8
BLACK
6
CONTINUOUS
10
1.57549
20
0.382149
11
1.57293
21
0.380442
0
LINE
8
BLACK
6
CONTINUOUS
10
1.57293
20
0.380442
11
1.56992
21
0.379843
0
LINE
8
BLACK
6
CONTINUOUS
10
1.56992
20
0.379843
11
1.44
21
0.379843
0
LINE
8
BLACK
6
CONTINUOUS
10
1.44
20
0.379843
11
1.43699
21
0.380442
0
LINE
8
BLACK
6
CONTINUOUS
10
1.43699
20
0.380442
11
1.43443
21
0.382149
0
LINE
8
BLACK
6
CONTINUOUS
10
1.43443
20
0.382149
11
1.43273
21
0.384703
0
LINE
8
BLACK
6
CONTINUOUS
10
1.43273
20
0.384703
11
1.43213
21
0.387717
0
LINE
8
BLACK
6
CONTINUOUS
10
1.43213
20
0.387717
11
1.43213
21
0.48811
0
LINE
8
BLACK
6
CONTINUOUS
10
1.43213
20
0.48811
11
1.43273
21
0.491124
0
LINE
8
BLACK
6
CONTINUOUS
10
1.43273
20
0.491124
11
1.43443
21
0.493678
0
LINE
8
BLACK
6
CONTINUOUS
10
1.43443
20
0.493678
11
1.43699
21
0.495385
0
LINE
8
BLACK
6
CONTINUOUS
10
1.43699
20
0.495385
11
1.44
21
0.495984
0
LINE
8
BLACK
6
CONTINUOUS
10
1.44
20
0.495984
11
1.56992
21
0.495984
0
LINE
8
BLACK
6
CONTINUOUS
10
1.56992
20
0.495984
11
1.57293
21
0.495385
0
LINE
8
BLACK
6
CONTINUOUS
10
2.04538
20
0.434361
11
2.04793
21
0.432654
0
LINE
8
BLACK
6
CONTINUOUS
10
2.04793
20
0.432654
11
2.04964
21
0.4301
0
LINE
8
BLACK
6
CONTINUOUS
10
2.04964
20
0.4301
11
2.05024
21
0.427087
0
LINE
8
BLACK
6
CONTINUOUS
10
2.05024
20
0.427087
11
2.05024
21
0.387717
0
LINE
8
BLACK
6
CONTINUOUS
10
2.05024
20
0.387717
11
2.04964
21
0.384703
0
LINE
8
BLACK
6
CONTINUOUS
10
2.04964
20
0.384703
11
2.04793
21
0.382149
0
LINE
8
BLACK
6
CONTINUOUS
10
2.04793
20
0.382149
11
2.04538
21
0.380442
0
LINE
8
BLACK
6
CONTINUOUS
10
2.04538
20
0.380442
11
2.04236
21
0.379843
0
LINE
8
BLACK
6
CONTINUOUS
10
2.04236
20
0.379843
11
1.89276
21
0.379843
0
LINE
8
BLACK
6
CONTINUOUS
10
1.89276
20
0.379843
11
1.88974
21
0.380442
0
LINE
8
BLACK
6
CONTINUOUS
10
1.88974
20
0.380442
11
1.88719
21
0.382149
0
LINE
8
BLACK
6
CONTINUOUS
10
1.88719
20
0.382149
11
1.88548
21
0.384703
0
LINE
8
BLACK
6
CONTINUOUS
10
1.88548
20
0.384703
11
1.88488
21
0.387717
0
LINE
8
BLACK
6
CONTINUOUS
10
1.88488
20
0.387717
11
1.88488
21
0.427087
0
LINE
8
BLACK
6
CONTINUOUS
10
1.88488
20
0.427087
11
1.88548
21
0.4301
0
LINE
8
BLACK
6
CONTINUOUS
10
1.88548
20
0.4301
11
1.88719
21
0.432654
0
LINE
8
BLACK
6
CONTINUOUS
10
1.88719
20
0.432654
11
1.88974
21
0.434361
0
LINE
8
BLACK
6
CONTINUOUS
10
1.88974
20
0.434361
11
1.89276
21
0.434961
0
LINE
8
BLACK
6
CONTINUOUS
10
1.89276
20
0.434961
11
2.04236
21
0.434961
0
LINE
8
BLACK
6
CONTINUOUS
10
2.04236
20
0.434961
11
2.04538
21
0.434361
0
LINE
8
BLACK
6
CONTINUOUS
10
1.32868
20
0.727747
11
1.33124
21
0.72604
0
LINE
8
BLACK
6
CONTINUOUS
10
1.33124
20
0.72604
11
1.33294
21
0.723486
0
LINE
8
BLACK
6
CONTINUOUS
10
1.33294
20
0.723486
11
1.33354
21
0.720472
0
LINE
8
BLACK
6
CONTINUOUS
10
1.33354
20
0.720472
11
1.33354
21
0.570866
0
LINE
8
BLACK
6
CONTINUOUS
10
1.33354
20
0.570866
11
1.33294
21
0.567853
0
LINE
8
BLACK
6
CONTINUOUS
10
1.33294
20
0.567853
11
1.33124
21
0.565298
0
LINE
8
BLACK
6
CONTINUOUS
10
1.33124
20
0.565298
11
1.32868
21
0.563591
0
LINE
8
BLACK
6
CONTINUOUS
10
1.32868
20
0.563591
11
1.32567
21
0.562992
0
LINE
8
BLACK
6
CONTINUOUS
10
1.32567
20
0.562992
11
1.2863
21
0.562992
0
LINE
8
BLACK
6
CONTINUOUS
10
1.2863
20
0.562992
11
1.28329
21
0.563591
0
LINE
8
BLACK
6
CONTINUOUS
10
1.28329
20
0.563591
11
1.28073
21
0.565298
0
LINE
8
BLACK
6
CONTINUOUS
10
1.28073
20
0.565298
11
1.27902
21
0.567853
0
LINE
8
BLACK
6
CONTINUOUS
10
1.27902
20
0.567853
11
1.27843
21
0.570866
0
LINE
8
BLACK
6
CONTINUOUS
10
1.27843
20
0.570866
11
1.27843
21
0.720472
0
LINE
8
BLACK
6
CONTINUOUS
10
1.27843
20
0.720472
11
1.27902
21
0.723486
0
LINE
8
BLACK
6
CONTINUOUS
10
1.27902
20
0.723486
11
1.28073
21
0.72604
0
LINE
8
BLACK
6
CONTINUOUS
10
1.28073
20
0.72604
11
1.28329
21
0.727747
0
LINE
8
BLACK
6
CONTINUOUS
10
1.28329
20
0.727747
11
1.2863
21
0.728346
0
LINE
8
BLACK
6
CONTINUOUS
10
1.2863
20
0.728346
11
1.32567
21
0.728346
0
LINE
8
BLACK
6
CONTINUOUS
10
1.32567
20
0.728346
11
1.32868
21
0.727747
0
LINE
8
BLACK
6
CONTINUOUS
10
1.48238
20
0.731605
11
1.48494
21
0.729898
0
LINE
8
BLACK
6
CONTINUOUS
10
1.48494
20
0.729898
11
1.48664
21
0.727344
0
LINE
8
BLACK
6
CONTINUOUS
10
1.48664
20
0.727344
11
1.48724
21
0.724331
0
LINE
8
BLACK
6
CONTINUOUS
10
1.48724
20
0.724331
11
1.48724
21
0.574724
0
LINE
8
BLACK
6
CONTINUOUS
10
1.48724
20
0.574724
11
1.48664
21
0.571711
0
LINE
8
BLACK
6
CONTINUOUS
10
1.48664
20
0.571711
11
1.48494
21
0.569157
0
LINE
8
BLACK
6
CONTINUOUS
10
1.48494
20
0.569157
11
1.48238
21
0.56745
0
LINE
8
BLACK
6
CONTINUOUS
10
1.48238
20
0.56745
11
1.47937
21
0.56685
0
LINE
8
BLACK
6
CONTINUOUS
10
1.47937
20
0.56685
11
1.44
21
0.56685
0
LINE
8
BLACK
6
CONTINUOUS
10
1.44
20
0.56685
11
1.43699
21
0.56745
0
LINE
8
BLACK
6
CONTINUOUS
10
1.43699
20
0.56745
11
1.43443
21
0.569157
0
LINE
8
BLACK
6
CONTINUOUS
10
1.43443
20
0.569157
11
1.43273
21
0.571711
0
LINE
8
BLACK
6
CONTINUOUS
10
1.43273
20
0.571711
11
1.43213
21
0.574724
0
LINE
8
BLACK
6
CONTINUOUS
10
1.43213
20
0.574724
11
1.43213
21
0.724331
0
LINE
8
BLACK
6
CONTINUOUS
10
1.43213
20
0.724331
11
1.43273
21
0.727344
0
LINE
8
BLACK
6
CONTINUOUS
10
1.43273
20
0.727344
11
1.43443
21
0.729898
0
LINE
8
BLACK
6
CONTINUOUS
10
1.43443
20
0.729898
11
1.43699
21
0.731605
0
LINE
8
BLACK
6
CONTINUOUS
10
1.43699
20
0.731605
11
1.44
21
0.732205
0
LINE
8
BLACK
6
CONTINUOUS
10
1.44
20
0.732205
11
1.47937
21
0.732205
0
LINE
8
BLACK
6
CONTINUOUS
10
1.47937
20
0.732205
11
1.48238
21
0.731605
0
LINE
8
BLACK
6
CONTINUOUS
10
3.20679
20
0.731605
11
3.20935
21
0.729898
0
LINE
8
BLACK
6
CONTINUOUS
10
3.20935
20
0.729898
11
3.21105
21
0.727344
0
LINE
8
BLACK
6
CONTINUOUS
10
3.21105
20
0.727344
11
3.21165
21
0.724331
0
LINE
8
BLACK
6
CONTINUOUS
10
3.21165
20
0.724331
11
3.21165
21
0.574724
0
LINE
8
BLACK
6
CONTINUOUS
10
3.21165
20
0.574724
11
3.21105
21
0.571711
0
LINE
8
BLACK
6
CONTINUOUS
10
3.21105
20
0.571711
11
3.20935
21
0.569157
0
LINE
8
BLACK
6
CONTINUOUS
10
3.20935
20
0.569157
11
3.20679
21
0.56745
0
LINE
8
BLACK
6
CONTINUOUS
10
3.20679
20
0.56745
11
3.20378
21
0.56685
0
LINE
8
BLACK
6
CONTINUOUS
10
3.20378
20
0.56685
11
3.16441
21
0.56685
0
LINE
8
BLACK
6
CONTINUOUS
10
3.16441
20
0.56685
11
3.1614
21
0.56745
0
LINE
8
BLACK
6
CONTINUOUS
10
3.1614
20
0.56745
11
3.15884
21
0.569157
0
LINE
8
BLACK
6
CONTINUOUS
10
3.15884
20
0.569157
11
3.15713
21
0.571711
0
LINE
8
BLACK
6
CONTINUOUS
10
3.15713
20
0.571711
11
3.15654
21
0.574724
0
LINE
8
BLACK
6
CONTINUOUS
10
3.15654
20
0.574724
11
3.15654
21
0.724331
0
LINE
8
BLACK
6
CONTINUOUS
10
3.15654
20
0.724331
11
3.15713
21
0.727344
0
LINE
8
BLACK
6
CONTINUOUS
10
3.15713
20
0.727344
11
3.15884
21
0.729898
0
LINE
8
BLACK
6
CONTINUOUS
10
3.15884
20
0.729898
11
3.1614
21
0.731605
0
LINE
8
BLACK
6
CONTINUOUS
10
3.1614
20
0.731605
11
3.16441
21
0.732205
0
LINE
8
BLACK
6
CONTINUOUS
10
3.16441
20
0.732205
11
3.20378
21
0.732205
0
LINE
8
BLACK
6
CONTINUOUS
10
3.20378
20
0.732205
11
3.20679
21
0.731605
0
LINE
8
BLACK
6
CONTINUOUS
10
3.20679
20
1.62727
11
3.20935
21
1.62557
0
LINE
8
BLACK
6
CONTINUOUS
10
3.20935
20
1.62557
11
3.21105
21
1.62301
0
LINE
8
BLACK
6
CONTINUOUS
10
3.21105
20
1.62301
11
3.21165
21
1.62
0
LINE
8
BLACK
6
CONTINUOUS
10
3.21165
20
1.62
11
3.21165
21
1.61
0
LINE
8
BLACK
6
CONTINUOUS
10
3.21165
20
1.61
11
3.57004
21
1.61
0
LINE
8
BLACK
6
CONTINUOUS
10
3.57004
20
1.61
11
3.57272
21
1.60921
0
LINE
8
BLACK
6
CONTINUOUS
10
3.57272
20
1.60921
11
3.57455
21
1.6071
0
LINE
8
BLACK
6
CONTINUOUS
10
3.57455
20
1.6071
11
3.575
21
1.60504
0
LINE
8
BLACK
6
CONTINUOUS
10
3.575
20
1.60504
11
3.575
21
0.739961
0
LINE
8
BLACK
6
CONTINUOUS
10
3.575
20
0.739961
11
3.57421
21
0.737279
0
LINE
8
BLACK
6
CONTINUOUS
10
3.57421
20
0.737279
11
3.5721
21
0.735448
0
LINE
8
BLACK
6
CONTINUOUS
10
3.5721
20
0.735448
11
3.57004
21
0.735
0
LINE
8
BLACK
6
CONTINUOUS
10
3.57004
20
0.735
11
3.16496
21
0.735
0
LINE
8
BLACK
6
CONTINUOUS
10
3.16496
20
0.735
11
3.16228
21
0.735787
0
LINE
8
BLACK
6
CONTINUOUS
10
3.16228
20
0.735787
11
3.16045
21
0.7379
0
LINE
8
BLACK
6
CONTINUOUS
10
3.16045
20
0.7379
11
3.16
21
0.739961
0
LINE
8
BLACK
6
CONTINUOUS
10
3.16
20
0.739961
11
3.16
21
0.804603
0
LINE
8
BLACK
6
CONTINUOUS
10
3.16
20
0.804603
11
3.15884
21
0.805377
0
LINE
8
BLACK
6
CONTINUOUS
10
3.15884
20
0.805377
11
3.15713
21
0.807932
0
LINE
8
BLACK
6
CONTINUOUS
10
3.15713
20
0.807932
11
3.15654
21
0.810945
0
LINE
8
BLACK
6
CONTINUOUS
10
3.15654
20
0.810945
11
3.15654
21
0.960551
0
LINE
8
BLACK
6
CONTINUOUS
10
3.15654
20
0.960551
11
3.15713
21
0.963564
0
LINE
8
BLACK
6
CONTINUOUS
10
3.15713
20
0.963564
11
3.15884
21
0.966119
0
LINE
8
BLACK
6
CONTINUOUS
10
3.15884
20
0.966119
11
3.16
21
0.966893
0
LINE
8
BLACK
6
CONTINUOUS
10
3.16
20
0.966893
11
3.16
21
1.04082
0
LINE
8
BLACK
6
CONTINUOUS
10
3.16
20
1.04082
11
3.15884
21
1.0416
0
LINE
8
BLACK
6
CONTINUOUS
10
3.15884
20
1.0416
11
3.15713
21
1.04415
0
LINE
8
BLACK
6
CONTINUOUS
10
3.15713
20
1.04415
11
3.15654
21
1.04717
0
LINE
8
BLACK
6
CONTINUOUS
10
3.15654
20
1.04717
11
3.15654
21
1.19677
0
LINE
8
BLACK
6
CONTINUOUS
10
3.15654
20
1.19677
11
3.15713
21
1.19978
0
LINE
8
BLACK
6
CONTINUOUS
10
3.15713
20
1.19978
11
3.15884
21
1.20234
0
LINE
8
BLACK
6
CONTINUOUS
10
3.15884
20
1.20234
11
3.16
21
1.20311
0
LINE
8
BLACK
6
CONTINUOUS
10
3.16
20
1.20311
11
3.16
21
1.27704
0
LINE
8
BLACK
6
CONTINUOUS
10
3.16
20
1.27704
11
3.15884
21
1.27782
0
LINE
8
BLACK
6
CONTINUOUS
10
3.15884
20
1.27782
11
3.15713
21
1.28037
0
LINE
8
BLACK
6
CONTINUOUS
10
3.15713
20
1.28037
11
3.15654
21
1.28339
0
LINE
8
BLACK
6
CONTINUOUS
10
3.15654
20
1.28339
11
3.15654
21
1.43299
0
LINE
8
BLACK
6
CONTINUOUS
10
3.15654
20
1.43299
11
3.15713
21
1.43601
0
LINE
8
BLACK
6
CONTINUOUS
10
3.15713
20
1.43601
11
3.15884
21
1.43856
0
LINE
8
BLACK
6
CONTINUOUS
10
3.15884
20
1.43856
11
3.16
21
1.43933
0
LINE
8
BLACK
6
CONTINUOUS
10
3.16
20
1.43933
11
3.16
21
1.51173
0
LINE
8
BLACK
6
CONTINUOUS
10
3.16
20
1.51173
11
3.07386
21
1.51173
0
LINE
8
BLACK
6
CONTINUOUS
10
3.07386
20
1.51173
11
3.07084
21
1.51233
0
LINE
8
BLACK
6
CONTINUOUS
10
3.07084
20
1.51233
11
3.06829
21
1.51404
0
LINE
8
BLACK
6
CONTINUOUS
10
3.06829
20
1.51404
11
3.06658
21
1.51659
0
LINE
8
BLACK
6
CONTINUOUS
10
3.06658
20
1.51659
11
3.06598
21
1.51961
0
LINE
8
BLACK
6
CONTINUOUS
10
3.06598
20
1.51961
11
3.06598
21
1.62
0
LINE
8
BLACK
6
CONTINUOUS
10
3.06598
20
1.62
11
3.06658
21
1.62301
0
LINE
8
BLACK
6
CONTINUOUS
10
3.06658
20
1.62301
11
3.06829
21
1.62557
0
LINE
8
BLACK
6
CONTINUOUS
10
3.06829
20
1.62557
11
3.07084
21
1.62727
0
LINE
8
BLACK
6
CONTINUOUS
10
3.07084
20
1.62727
11
3.07386
21
1.62787
0
LINE
8
BLACK
6
CONTINUOUS
10
3.07386
20
1.62787
11
3.20378
21
1.62787
0
LINE
8
BLACK
6
CONTINUOUS
10
3.20378
20
1.62787
11
3.20679
21
1.62727
0
LINE
8
BLACK
6
CONTINUOUS
10
1.32868
20
0.963968
11
1.33124
21
0.962261
0
LINE
8
BLACK
6
CONTINUOUS
10
1.33124
20
0.962261
11
1.33294
21
0.959706
0
LINE
8
BLACK
6
CONTINUOUS
10
1.33294
20
0.959706
11
1.33354
21
0.956693
0
LINE
8
BLACK
6
CONTINUOUS
10
1.33354
20
0.956693
11
1.33354
21
0.807087
0
LINE
8
BLACK
6
CONTINUOUS
10
1.33354
20
0.807087
11
1.33294
21
0.804073
0
LINE
8
BLACK
6
CONTINUOUS
10
1.33294
20
0.804073
11
1.33124
21
0.801519
0
LINE
8
BLACK
6
CONTINUOUS
10
1.33124
20
0.801519
11
1.32868
21
0.799812
0
LINE
8
BLACK
6
CONTINUOUS
10
1.32868
20
0.799812
11
1.32567
21
0.799213
0
LINE
8
BLACK
6
CONTINUOUS
10
1.32567
20
0.799213
11
1.2863
21
0.799213
0
LINE
8
BLACK
6
CONTINUOUS
10
1.2863
20
0.799213
11
1.28329
21
0.799812
0
LINE
8
BLACK
6
CONTINUOUS
10
1.28329
20
0.799812
11
1.28073
21
0.801519
0
LINE
8
BLACK
6
CONTINUOUS
10
1.28073
20
0.801519
11
1.27902
21
0.804073
0
LINE
8
BLACK
6
CONTINUOUS
10
1.27902
20
0.804073
11
1.27843
21
0.807087
0
LINE
8
BLACK
6
CONTINUOUS
10
1.27843
20
0.807087
11
1.27843
21
0.956693
0
LINE
8
BLACK
6
CONTINUOUS
10
1.27843
20
0.956693
11
1.27902
21
0.959706
0
LINE
8
BLACK
6
CONTINUOUS
10
1.27902
20
0.959706
11
1.28073
21
0.962261
0
LINE
8
BLACK
6
CONTINUOUS
10
1.28073
20
0.962261
11
1.28329
21
0.963968
0
LINE
8
BLACK
6
CONTINUOUS
10
1.28329
20
0.963968
11
1.2863
21
0.964567
0
LINE
8
BLACK
6
CONTINUOUS
10
1.2863
20
0.964567
11
1.32567
21
0.964567
0
LINE
8
BLACK
6
CONTINUOUS
10
1.32567
20
0.964567
11
1.32868
21
0.963968
0
LINE
8
BLACK
6
CONTINUOUS
10
1.48238
20
0.967826
11
1.48494
21
0.966119
0
LINE
8
BLACK
6
CONTINUOUS
10
1.48494
20
0.966119
11
1.48664
21
0.963564
0
LINE
8
BLACK
6
CONTINUOUS
10
1.48664
20
0.963564
11
1.48724
21
0.960551
0
LINE
8
BLACK
6
CONTINUOUS
10
1.48724
20
0.960551
11
1.48724
21
0.810945
0
LINE
8
BLACK
6
CONTINUOUS
10
1.48724
20
0.810945
11
1.48664
21
0.807932
0
LINE
8
BLACK
6
CONTINUOUS
10
1.48664
20
0.807932
11
1.48494
21
0.805377
0
LINE
8
BLACK
6
CONTINUOUS
10
1.48494
20
0.805377
11
1.48238
21
0.80367
0
LINE
8
BLACK
6
CONTINUOUS
10
1.48238
20
0.80367
11
1.47937
21
0.803071
0
LINE
8
BLACK
6
CONTINUOUS
10
1.47937
20
0.803071
11
1.44
21
0.803071
0
LINE
8
BLACK
6
CONTINUOUS
10
1.44
20
0.803071
11
1.43699
21
0.80367
0
LINE
8
BLACK
6
CONTINUOUS
10
1.43699
20
0.80367
11
1.43443
21
0.805377
0
LINE
8
BLACK
6
CONTINUOUS
10
1.43443
20
0.805377
11
1.43273
21
0.807932
0
LINE
8
BLACK
6
CONTINUOUS
10
1.43273
20
0.807932
11
1.43213
21
0.810945
0
LINE
8
BLACK
6
CONTINUOUS
10
1.43213
20
0.810945
11
1.43213
21
0.960551
0
LINE
8
BLACK
6
CONTINUOUS
10
1.43213
20
0.960551
11
1.43273
21
0.963564
0
LINE
8
BLACK
6
CONTINUOUS
10
1.43273
20
0.963564
11
1.43443
21
0.966119
0
LINE
8
BLACK
6
CONTINUOUS
10
1.43443
20
0.966119
11
1.43699
21
0.967826
0
LINE
8
BLACK
6
CONTINUOUS
10
1.43699
20
0.967826
11
1.44
21
0.968425
0
LINE
8
BLACK
6
CONTINUOUS
10
1.44
20
0.968425
11
1.47937
21
0.968425
0
LINE
8
BLACK
6
CONTINUOUS
10
1.47937
20
0.968425
11
1.48238
21
0.967826
0
LINE
8
BLACK
6
CONTINUOUS
10
1.32868
20
1.20019
11
1.33124
21
1.19848
0
LINE
8
BLACK
6
CONTINUOUS
10
1.33124
20
1.19848
11
1.33294
21
1.19593
0
LINE
8
BLACK
6
CONTINUOUS
10
1.33294
20
1.19593
11
1.33354
21
1.19291
0
LINE
8
BLACK
6
CONTINUOUS
10
1.33354
20
1.19291
11
1.33354
21
1.04331
0
LINE
8
BLACK
6
CONTINUOUS
10
1.33354
20
1.04331
11
1.33294
21
1.04029
0
LINE
8
BLACK
6
CONTINUOUS
10
1.33294
20
1.04029
11
1.33124
21
1.03774
0
LINE
8
BLACK
6
CONTINUOUS
10
1.33124
20
1.03774
11
1.32868
21
1.03603
0
LINE
8
BLACK
6
CONTINUOUS
10
1.32868
20
1.03603
11
1.32567
21
1.03543
0
LINE
8
BLACK
6
CONTINUOUS
10
1.32567
20
1.03543
11
1.2863
21
1.03543
0
LINE
8
BLACK
6
CONTINUOUS
10
1.2863
20
1.03543
11
1.28329
21
1.03603
0
LINE
8
BLACK
6
CONTINUOUS
10
1.28329
20
1.03603
11
1.28073
21
1.03774
0
LINE
8
BLACK
6
CONTINUOUS
10
1.28073
20
1.03774
11
1.27902
21
1.04029
0
LINE
8
BLACK
6
CONTINUOUS
10
1.27902
20
1.04029
11
1.27843
21
1.04331
0
LINE
8
BLACK
6
CONTINUOUS
10
1.27843
20
1.04331
11
1.27843
21
1.19291
0
LINE
8
BLACK
6
CONTINUOUS
10
1.27843
20
1.19291
11
1.27902
21
1.19593
0
LINE
8
BLACK
6
CONTINUOUS
10
1.27902
20
1.19593
11
1.28073
21
1.19848
0
LINE
8
BLACK
6
CONTINUOUS
10
1.28073
20
1.19848
11
1.28329
21
1.20019
0
LINE
8
BLACK
6
CONTINUOUS
10
1.28329
20
1.20019
11
1.2863
21
1.20079
0
LINE
8
BLACK
6
CONTINUOUS
10
1.2863
20
1.20079
11
1.32567
21
1.20079
0
LINE
8
BLACK
6
CONTINUOUS
10
1.32567
20
1.20079
11
1.32868
21
1.20019
0
LINE
8
BLACK
6
CONTINUOUS
10
1.48238
20
1.20405
11
1.48494
21
1.20234
0
LINE
8
BLACK
6
CONTINUOUS
10
1.48494
20
1.20234
11
1.48664
21
1.19978
0
LINE
8
BLACK
6
CONTINUOUS
10
1.48664
20
1.19978
11
1.48724
21
1.19677
0
LINE
8
BLACK
6
CONTINUOUS
10
1.48724
20
1.19677
11
1.48724
21
1.04717
0
LINE
8
BLACK
6
CONTINUOUS
10
1.48724
20
1.04717
11
1.48664
21
1.04415
0
LINE
8
BLACK
6
CONTINUOUS
10
1.48664
20
1.04415
11
1.48494
21
1.0416
0
LINE
8
BLACK
6
CONTINUOUS
10
1.48494
20
1.0416
11
1.48238
21
1.03989
0
LINE
8
BLACK
6
CONTINUOUS
10
1.48238
20
1.03989
11
1.47937
21
1.03929
0
LINE
8
BLACK
6
CONTINUOUS
10
1.47937
20
1.03929
11
1.44
21
1.03929
0
LINE
8
BLACK
6
CONTINUOUS
10
1.44
20
1.03929
11
1.43699
21
1.03989
0
LINE
8
BLACK
6
CONTINUOUS
10
1.43699
20
1.03989
11
1.43443
21
1.0416
0
LINE
8
BLACK
6
CONTINUOUS
10
1.43443
20
1.0416
11
1.43273
21
1.04415
0
LINE
8
BLACK
6
CONTINUOUS
10
1.43273
20
1.04415
11
1.43213
21
1.04717
0
LINE
8
BLACK
6
CONTINUOUS
10
1.43213
20
1.04717
11
1.43213
21
1.19677
0
LINE
8
BLACK
6
CONTINUOUS
10
1.43213
20
1.19677
11
1.43273
21
1.19978
0
LINE
8
BLACK
6
CONTINUOUS
10
1.43273
20
1.19978
11
1.43443
21
1.20234
0
LINE
8
BLACK
6
CONTINUOUS
10
1.43443
20
1.20234
11
1.43699
21
1.20405
0
LINE
8
BLACK
6
CONTINUOUS
10
1.43699
20
1.20405
11
1.44
21
1.20465
0
LINE
8
BLACK
6
CONTINUOUS
10
1.44
20
1.20465
11
1.47937
21
1.20465
0
LINE
8
BLACK
6
CONTINUOUS
10
1.47937
20
1.20465
11
1.48238
21
1.20405
0
LINE
8
BLACK
6
CONTINUOUS
10
1.32868
20
1.43641
11
1.33124
21
1.4347
0
LINE
8
BLACK
6
CONTINUOUS
10
1.33124
20
1.4347
11
1.33294
21
1.43215
0
LINE
8
BLACK
6
CONTINUOUS
10
1.33294
20
1.43215
11
1.33354
21
1.42913
0
LINE
8
BLACK
6
CONTINUOUS
10
1.33354
20
1.42913
11
1.33354
21
1.27953
0
LINE
8
BLACK
6
CONTINUOUS
10
1.33354
20
1.27953
11
1.33294
21
1.27651
0
LINE
8
BLACK
6
CONTINUOUS
10
1.33294
20
1.27651
11
1.33124
21
1.27396
0
LINE
8
BLACK
6
CONTINUOUS
10
1.33124
20
1.27396
11
1.32868
21
1.27225
0
LINE
8
BLACK
6
CONTINUOUS
10
1.32868
20
1.27225
11
1.32567
21
1.27165
0
LINE
8
BLACK
6
CONTINUOUS
10
1.32567
20
1.27165
11
1.2863
21
1.27165
0
LINE
8
BLACK
6
CONTINUOUS
10
1.2863
20
1.27165
11
1.28329
21
1.27225
0
LINE
8
BLACK
6
CONTINUOUS
10
1.28329
20
1.27225
11
1.28073
21
1.27396
0
LINE
8
BLACK
6
CONTINUOUS
10
1.28073
20
1.27396
11
1.27902
21
1.27651
0
LINE
8
BLACK
6
CONTINUOUS
10
1.27902
20
1.27651
11
1.27843
21
1.27953
0
LINE
8
BLACK
6
CONTINUOUS
10
1.27843
20
1.27953
11
1.27843
21
1.42913
0
LINE
8
BLACK
6
CONTINUOUS
10
1.27843
20
1.42913
11
1.27902
21
1.43215
0
LINE
8
BLACK
6
CONTINUOUS
10
1.27902
20
1.43215
11
1.28073
21
1.4347
0
LINE
8
BLACK
6
CONTINUOUS
10
1.28073
20
1.4347
11
1.28329
21
1.43641
0
LINE
8
BLACK
6
CONTINUOUS
10
1.28329
20
1.43641
11
1.2863
21
1.43701
0
LINE
8
BLACK
6
CONTINUOUS
10
1.2863
20
1.43701
11
1.32567
21
1.43701
0
LINE
8
BLACK
6
CONTINUOUS
10
1.32567
20
1.43701
11
1.32868
21
1.43641
0
LINE
8
BLACK
6
CONTINUOUS
10
1.48238
20
1.44027
11
1.48494
21
1.43856
0
LINE
8
BLACK
6
CONTINUOUS
10
1.48494
20
1.43856
11
1.48664
21
1.43601
0
LINE
8
BLACK
6
CONTINUOUS
10
1.48664
20
1.43601
11
1.48724
21
1.43299
0
LINE
8
BLACK
6
CONTINUOUS
10
1.48724
20
1.43299
11
1.48724
21
1.28339
0
LINE
8
BLACK
6
CONTINUOUS
10
1.48724
20
1.28339
11
1.48664
21
1.28037
0
LINE
8
BLACK
6
CONTINUOUS
10
1.48664
20
1.28037
11
1.48494
21
1.27782
0
LINE
8
BLACK
6
CONTINUOUS
10
1.48494
20
1.27782
11
1.48238
21
1.27611
0
LINE
8
BLACK
6
CONTINUOUS
10
1.48238
20
1.27611
11
1.47937
21
1.27551
0
LINE
8
BLACK
6
CONTINUOUS
10
1.47937
20
1.27551
11
1.44
21
1.27551
0
LINE
8
BLACK
6
CONTINUOUS
10
1.44
20
1.27551
11
1.43699
21
1.27611
0
LINE
8
BLACK
6
CONTINUOUS
10
1.43699
20
1.27611
11
1.43443
21
1.27782
0
LINE
8
BLACK
6
CONTINUOUS
10
1.43443
20
1.27782
11
1.43273
21
1.28037
0
LINE
8
BLACK
6
CONTINUOUS
10
1.43273
20
1.28037
11
1.43213
21
1.28339
0
LINE
8
BLACK
6
CONTINUOUS
10
1.43213
20
1.28339
11
1.43213
21
1.43299
0
LINE
8
BLACK
6
CONTINUOUS
10
1.43213
20
1.43299
11
1.43273
21
1.43601
0
LINE
8
BLACK
6
CONTINUOUS
10
1.43273
20
1.43601
11
1.43443
21
1.43856
0
LINE
8
BLACK
6
CONTINUOUS
10
1.43443
20
1.43856
11
1.43699
21
1.44027
0
LINE
8
BLACK
6
CONTINUOUS
10
1.43699
20
1.44027
11
1.44
21
1.44087
0
LINE
8
BLACK
6
CONTINUOUS
10
1.44
20
1.44087
11
1.47937
21
1.44087
0
LINE
8
BLACK
6
CONTINUOUS
10
1.47937
20
1.44087
11
1.48238
21
1.44027
0
LINE
8
BLACK
6
CONTINUOUS
10
1.98752
20
1.39664
11
1.99449
21
1.39448
0
LINE
8
BLACK
6
CONTINUOUS
10
1.99449
20
1.39448
11
2.00091
21
1.39101
0
LINE
8
BLACK
6
CONTINUOUS
10
2.00091
20
1.39101
11
2.00654
21
1.38635
0
LINE
8
BLACK
6
CONTINUOUS
10
2.00654
20
1.38635
11
2.01115
21
1.3807
0
LINE
8
BLACK
6
CONTINUOUS
10
2.01115
20
1.3807
11
2.01458
21
1.37425
0
LINE
8
BLACK
6
CONTINUOUS
10
2.01458
20
1.37425
11
2.01669
21
1.36726
0
LINE
8
BLACK
6
CONTINUOUS
10
2.01669
20
1.36726
11
2.0174
21
1.36
0
LINE
8
BLACK
6
CONTINUOUS
10
2.0174
20
1.36
11
2.01739
21
1.35896
0
LINE
8
BLACK
6
CONTINUOUS
10
2.01739
20
1.35896
11
2.01647
21
1.35171
0
LINE
8
BLACK
6
CONTINUOUS
10
2.01647
20
1.35171
11
2.01417
21
1.34479
0
LINE
8
BLACK
6
CONTINUOUS
10
2.01417
20
1.34479
11
2.01056
21
1.33844
0
LINE
8
BLACK
6
CONTINUOUS
10
2.01056
20
1.33844
11
2.00579
21
1.33291
0
LINE
8
BLACK
6
CONTINUOUS
10
2.00579
20
1.33291
11
2.00004
21
1.32842
0
LINE
8
BLACK
6
CONTINUOUS
10
2.00004
20
1.32842
11
1.99353
21
1.32513
0
LINE
8
BLACK
6
CONTINUOUS
10
1.99353
20
1.32513
11
1.98649
21
1.32317
0
LINE
8
BLACK
6
CONTINUOUS
10
1.98649
20
1.32317
11
1.97922
21
1.32261
0
LINE
8
BLACK
6
CONTINUOUS
10
1.97922
20
1.32261
11
1.97197
21
1.32347
0
LINE
8
BLACK
6
CONTINUOUS
10
1.97197
20
1.32347
11
1.96503
21
1.32573
0
LINE
8
BLACK
6
CONTINUOUS
10
1.96503
20
1.32573
11
1.95865
21
1.32929
0
LINE
8
BLACK
6
CONTINUOUS
10
1.95865
20
1.32929
11
1.9531
21
1.33402
0
LINE
8
BLACK
6
CONTINUOUS
10
1.9531
20
1.33402
11
1.94856
21
1.33974
0
LINE
8
BLACK
6
CONTINUOUS
10
1.94856
20
1.33974
11
1.94522
21
1.34623
0
LINE
8
BLACK
6
CONTINUOUS
10
1.94522
20
1.34623
11
1.94321
21
1.35325
0
LINE
8
BLACK
6
CONTINUOUS
10
1.94321
20
1.35325
11
1.9426
21
1.36052
0
LINE
8
BLACK
6
CONTINUOUS
10
1.9426
20
1.36052
11
1.94342
21
1.36778
0
LINE
8
BLACK
6
CONTINUOUS
10
1.94342
20
1.36778
11
1.94562
21
1.37473
0
LINE
8
BLACK
6
CONTINUOUS
10
1.94562
20
1.37473
11
1.94914
21
1.38113
0
LINE
8
BLACK
6
CONTINUOUS
10
1.94914
20
1.38113
11
1.95383
21
1.38672
0
LINE
8
BLACK
6
CONTINUOUS
10
1.95383
20
1.38672
11
1.95952
21
1.3913
0
LINE
8
BLACK
6
CONTINUOUS
10
1.95952
20
1.3913
11
1.96599
21
1.39468
0
LINE
8
BLACK
6
CONTINUOUS
10
1.96599
20
1.39468
11
1.97299
21
1.39674
0
LINE
8
BLACK
6
CONTINUOUS
10
1.97299
20
1.39674
11
1.98026
21
1.3974
0
LINE
8
BLACK
6
CONTINUOUS
10
1.98026
20
1.3974
11
1.98752
21
1.39664
0
LINE
8
BLACK
6
CONTINUOUS
10
2.17965
20
1.39664
11
2.18662
21
1.39448
0
LINE
8
BLACK
6
CONTINUOUS
10
2.18662
20
1.39448
11
2.19304
21
1.39101
0
LINE
8
BLACK
6
CONTINUOUS
10
2.19304
20
1.39101
11
2.19867
21
1.38635
0
LINE
8
BLACK
6
CONTINUOUS
10
2.19867
20
1.38635
11
2.20328
21
1.3807
0
LINE
8
BLACK
6
CONTINUOUS
10
2.20328
20
1.3807
11
2.20671
21
1.37425
0
LINE
8
BLACK
6
CONTINUOUS
10
2.20671
20
1.37425
11
2.20882
21
1.36726
0
LINE
8
BLACK
6
CONTINUOUS
10
2.20882
20
1.36726
11
2.20953
21
1.36
0
LINE
8
BLACK
6
CONTINUOUS
10
2.20953
20
1.36
11
2.20951
21
1.35896
0
LINE
8
BLACK
6
CONTINUOUS
10
2.20951
20
1.35896
11
2.2086
21
1.35171
0
LINE
8
BLACK
6
CONTINUOUS
10
2.2086
20
1.35171
11
2.20629
21
1.34479
0
LINE
8
BLACK
6
CONTINUOUS
10
2.20629
20
1.34479
11
2.20269
21
1.33844
0
LINE
8
BLACK
6
CONTINUOUS
10
2.20269
20
1.33844
11
2.19792
21
1.33291
0
LINE
8
BLACK
6
CONTINUOUS
10
2.19792
20
1.33291
11
2.19217
21
1.32842
0
LINE
8
BLACK
6
CONTINUOUS
10
2.19217
20
1.32842
11
2.18565
21
1.32513
0
LINE
8
BLACK
6
CONTINUOUS
10
2.18565
20
1.32513
11
2.17862
21
1.32317
0
LINE
8
BLACK
6
CONTINUOUS
10
2.17862
20
1.32317
11
2.17134
21
1.32261
0
LINE
8
BLACK
6
CONTINUOUS
10
2.17134
20
1.32261
11
2.16409
21
1.32347
0
LINE
8
BLACK
6
CONTINUOUS
10
2.16409
20
1.32347
11
2.15715
21
1.32573
0
LINE
8
BLACK
6
CONTINUOUS
10
2.15715
20
1.32573
11
2.15078
21
1.32929
0
LINE
8
BLACK
6
CONTINUOUS
10
2.15078
20
1.32929
11
2.14522
21
1.33402
0
LINE
8
BLACK
6
CONTINUOUS
10
2.14522
20
1.33402
11
2.14069
21
1.33974
0
LINE
8
BLACK
6
CONTINUOUS
10
2.14069
20
1.33974
11
2.13735
21
1.34623
0
LINE
8
BLACK
6
CONTINUOUS
10
2.13735
20
1.34623
11
2.13534
21
1.35325
0
LINE
8
BLACK
6
CONTINUOUS
10
2.13534
20
1.35325
11
2.13473
21
1.36052
0
LINE
8
BLACK
6
CONTINUOUS
10
2.13473
20
1.36052
11
2.13554
21
1.36778
0
LINE
8
BLACK
6
CONTINUOUS
10
2.13554
20
1.36778
11
2.13775
21
1.37473
0
LINE
8
BLACK
6
CONTINUOUS
10
2.13775
20
1.37473
11
2.14127
21
1.38113
0
LINE
8
BLACK
6
CONTINUOUS
10
2.14127
20
1.38113
11
2.14596
21
1.38672
0
LINE
8
BLACK
6
CONTINUOUS
10
2.14596
20
1.38672
11
2.15165
21
1.3913
0
LINE
8
BLACK
6
CONTINUOUS
10
2.15165
20
1.3913
11
2.15812
21
1.39468
0
LINE
8
BLACK
6
CONTINUOUS
10
2.15812
20
1.39468
11
2.16512
21
1.39674
0
LINE
8
BLACK
6
CONTINUOUS
10
2.16512
20
1.39674
11
2.17239
21
1.3974
0
LINE
8
BLACK
6
CONTINUOUS
10
2.17239
20
1.3974
11
2.17965
21
1.39664
0
LINE
8
BLACK
6
CONTINUOUS
10
1.33294
20
1.51273
11
1.33124
21
1.51018
0
LINE
8
BLACK
6
CONTINUOUS
10
1.33124
20
1.51018
11
1.32868
21
1.50847
0
LINE
8
BLACK
6
CONTINUOUS
10
1.32868
20
1.50847
11
1.32567
21
1.50787
0
LINE
8
BLACK
6
CONTINUOUS
10
1.32567
20
1.50787
11
1.2863
21
1.50787
0
LINE
8
BLACK
6
CONTINUOUS
10
1.2863
20
1.50787
11
1.28329
21
1.50847
0
LINE
8
BLACK
6
CONTINUOUS
10
1.28329
20
1.50847
11
1.28073
21
1.51018
0
LINE
8
BLACK
6
CONTINUOUS
10
1.28073
20
1.51018
11
1.27902
21
1.51273
0
LINE
8
BLACK
6
CONTINUOUS
10
1.27902
20
1.51273
11
1.27843
21
1.51575
0
LINE
8
BLACK
6
CONTINUOUS
10
1.27843
20
1.51575
11
1.27843
21
1.59843
0
LINE
8
BLACK
6
CONTINUOUS
10
1.27843
20
1.59843
11
1.19575
21
1.59843
0
LINE
8
BLACK
6
CONTINUOUS
10
1.19575
20
1.59843
11
1.19273
21
1.59902
0
LINE
8
BLACK
6
CONTINUOUS
10
1.19273
20
1.59902
11
1.19018
21
1.60073
0
LINE
8
BLACK
6
CONTINUOUS
10
1.19018
20
1.60073
11
1.18847
21
1.60329
0
LINE
8
BLACK
6
CONTINUOUS
10
1.18847
20
1.60329
11
1.18787
21
1.6063
0
LINE
8
BLACK
6
CONTINUOUS
10
1.18787
20
1.6063
11
1.18787
21
1.64567
0
LINE
8
BLACK
6
CONTINUOUS
10
1.18787
20
1.64567
11
1.18847
21
1.64868
0
LINE
8
BLACK
6
CONTINUOUS
10
1.18847
20
1.64868
11
1.19018
21
1.65124
0
LINE
8
BLACK
6
CONTINUOUS
10
1.19018
20
1.65124
11
1.19273
21
1.65294
0
LINE
8
BLACK
6
CONTINUOUS
10
1.19273
20
1.65294
11
1.19575
21
1.65354
0
LINE
8
BLACK
6
CONTINUOUS
10
1.19575
20
1.65354
11
1.32567
21
1.65354
0
LINE
8
BLACK
6
CONTINUOUS
10
1.32567
20
1.65354
11
1.32868
21
1.65294
0
LINE
8
BLACK
6
CONTINUOUS
10
1.32868
20
1.65294
11
1.33124
21
1.65124
0
LINE
8
BLACK
6
CONTINUOUS
10
1.33124
20
1.65124
11
1.33294
21
1.64868
0
LINE
8
BLACK
6
CONTINUOUS
10
1.33294
20
1.64868
11
1.33354
21
1.64567
0
LINE
8
BLACK
6
CONTINUOUS
10
1.33354
20
1.64567
11
1.33354
21
1.51575
0
LINE
8
BLACK
6
CONTINUOUS
10
1.33354
20
1.51575
11
1.33294
21
1.51273
0
LINE
8
BLACK
6
CONTINUOUS
10
1.57293
20
1.62727
11
1.57549
21
1.62557
0
LINE
8
BLACK
6
CONTINUOUS
10
1.57549
20
1.62557
11
1.5772
21
1.62301
0
LINE
8
BLACK
6
CONTINUOUS
10
1.5772
20
1.62301
11
1.5778
21
1.62
0
LINE
8
BLACK
6
CONTINUOUS
10
1.5778
20
1.62
11
1.5778
21
1.51961
0
LINE
8
BLACK
6
CONTINUOUS
10
1.5778
20
1.51961
11
1.5772
21
1.51659
0
LINE
8
BLACK
6
CONTINUOUS
10
1.5772
20
1.51659
11
1.57549
21
1.51404
0
LINE
8
BLACK
6
CONTINUOUS
10
1.57549
20
1.51404
11
1.57293
21
1.51233
0
LINE
8
BLACK
6
CONTINUOUS
10
1.57293
20
1.51233
11
1.56992
21
1.51173
0
LINE
8
BLACK
6
CONTINUOUS
10
1.56992
20
1.51173
11
1.44
21
1.51173
0
LINE
8
BLACK
6
CONTINUOUS
10
1.44
20
1.51173
11
1.43699
21
1.51233
0
LINE
8
BLACK
6
CONTINUOUS
10
1.43699
20
1.51233
11
1.43443
21
1.51404
0
LINE
8
BLACK
6
CONTINUOUS
10
1.43443
20
1.51404
11
1.43273
21
1.51659
0
LINE
8
BLACK
6
CONTINUOUS
10
1.43273
20
1.51659
11
1.43213
21
1.51961
0
LINE
8
BLACK
6
CONTINUOUS
10
1.43213
20
1.51961
11
1.43213
21
1.62
0
LINE
8
BLACK
6
CONTINUOUS
10
1.43213
20
1.62
11
1.43273
21
1.62301
0
LINE
8
BLACK
6
CONTINUOUS
10
1.43273
20
1.62301
11
1.43443
21
1.62557
0
LINE
8
BLACK
6
CONTINUOUS
10
1.43443
20
1.62557
11
1.43699
21
1.62727
0
LINE
8
BLACK
6
CONTINUOUS
10
1.43699
20
1.62727
11
1.44
21
1.62787
0
LINE
8
BLACK
6
CONTINUOUS
10
1.44
20
1.62787
11
1.56992
21
1.62787
0
LINE
8
BLACK
6
CONTINUOUS
10
1.56992
20
1.62787
11
1.57293
21
1.62727
0
LINE
8
BLACK
6
CONTINUOUS
10
2.2816
20
1.62727
11
2.28415
21
1.62557
0
LINE
8
BLACK
6
CONTINUOUS
10
2.28415
20
1.62557
11
2.28586
21
1.62301
0
LINE
8
BLACK
6
CONTINUOUS
10
2.28586
20
1.62301
11
2.28646
21
1.62
0
LINE
8
BLACK
6
CONTINUOUS
10
2.28646
20
1.62
11
2.28646
21
1.58063
0
LINE
8
BLACK
6
CONTINUOUS
10
2.28646
20
1.58063
11
2.28586
21
1.57762
0
LINE
8
BLACK
6
CONTINUOUS
10
2.28586
20
1.57762
11
2.28415
21
1.57506
0
LINE
8
BLACK
6
CONTINUOUS
10
2.28415
20
1.57506
11
2.2816
21
1.57336
0
LINE
8
BLACK
6
CONTINUOUS
10
2.2816
20
1.57336
11
2.27858
21
1.57276
0
LINE
8
BLACK
6
CONTINUOUS
10
2.27858
20
1.57276
11
2.12898
21
1.57276
0
LINE
8
BLACK
6
CONTINUOUS
10
2.12898
20
1.57276
11
2.12596
21
1.57336
0
LINE
8
BLACK
6
CONTINUOUS
10
2.12596
20
1.57336
11
2.12341
21
1.57506
0
LINE
8
BLACK
6
CONTINUOUS
10
2.12341
20
1.57506
11
2.1217
21
1.57762
0
LINE
8
BLACK
6
CONTINUOUS
10
2.1217
20
1.57762
11
2.1211
21
1.58063
0
LINE
8
BLACK
6
CONTINUOUS
10
2.1211
20
1.58063
11
2.1211
21
1.62
0
LINE
8
BLACK
6
CONTINUOUS
10
2.1211
20
1.62
11
2.1217
21
1.62301
0
LINE
8
BLACK
6
CONTINUOUS
10
2.1217
20
1.62301
11
2.12341
21
1.62557
0
LINE
8
BLACK
6
CONTINUOUS
10
2.12341
20
1.62557
11
2.12596
21
1.62727
0
LINE
8
BLACK
6
CONTINUOUS
10
2.12596
20
1.62727
11
2.12898
21
1.62787
0
LINE
8
BLACK
6
CONTINUOUS
10
2.12898
20
1.62787
11
2.27858
21
1.62787
0
LINE
8
BLACK
6
CONTINUOUS
10
2.27858
20
1.62787
11
2.2816
21
1.62727
0
LINE
8
BLACK
6
CONTINUOUS
10
2.99026
20
1.62727
11
2.99281
21
1.62557
0
LINE
8
BLACK
6
CONTINUOUS
10
2.99281
20
1.62557
11
2.99452
21
1.62301
0
LINE
8
BLACK
6
CONTINUOUS
10
2.99452
20
1.62301
11
2.99512
21
1.62
0
LINE
8
BLACK
6
CONTINUOUS
10
2.99512
20
1.62
11
2.99512
21
1.58063
0
LINE
8
BLACK
6
CONTINUOUS
10
2.99512
20
1.58063
11
2.99452
21
1.57762
0
LINE
8
BLACK
6
CONTINUOUS
10
2.99452
20
1.57762
11
2.99281
21
1.57506
0
LINE
8
BLACK
6
CONTINUOUS
10
2.99281
20
1.57506
11
2.99026
21
1.57336
0
LINE
8
BLACK
6
CONTINUOUS
10
2.99026
20
1.57336
11
2.98724
21
1.57276
0
LINE
8
BLACK
6
CONTINUOUS
10
2.98724
20
1.57276
11
2.83764
21
1.57276
0
LINE
8
BLACK
6
CONTINUOUS
10
2.83764
20
1.57276
11
2.83462
21
1.57336
0
LINE
8
BLACK
6
CONTINUOUS
10
2.83462
20
1.57336
11
2.83207
21
1.57506
0
LINE
8
BLACK
6
CONTINUOUS
10
2.83207
20
1.57506
11
2.83036
21
1.57762
0
LINE
8
BLACK
6
CONTINUOUS
10
2.83036
20
1.57762
11
2.82976
21
1.58063
0
LINE
8
BLACK
6
CONTINUOUS
10
2.82976
20
1.58063
11
2.82976
21
1.62
0
LINE
8
BLACK
6
CONTINUOUS
10
2.82976
20
1.62
11
2.83036
21
1.62301
0
LINE
8
BLACK
6
CONTINUOUS
10
2.83036
20
1.62301
11
2.83207
21
1.62557
0
LINE
8
BLACK
6
CONTINUOUS
10
2.83207
20
1.62557
11
2.83462
21
1.62727
0
LINE
8
BLACK
6
CONTINUOUS
10
2.83462
20
1.62727
11
2.83764
21
1.62787
0
LINE
8
BLACK
6
CONTINUOUS
10
2.83764
20
1.62787
11
2.98724
21
1.62787
0
LINE
8
BLACK
6
CONTINUOUS
10
2.98724
20
1.62787
11
2.99026
21
1.62727
0
LINE
8
BLACK
6
CONTINUOUS
10
2.75404
20
1.62727
11
2.75659
21
1.62557
0
LINE
8
BLACK
6
CONTINUOUS
10
2.75659
20
1.62557
11
2.7583
21
1.62301
0
LINE
8
BLACK
6
CONTINUOUS
10
2.7583
20
1.62301
11
2.7589
21
1.62
0
LINE
8
BLACK
6
CONTINUOUS
10
2.7589
20
1.62
11
2.7589
21
1.58063
0
LINE
8
BLACK
6
CONTINUOUS
10
2.7589
20
1.58063
11
2.7583
21
1.57762
0
LINE
8
BLACK
6
CONTINUOUS
10
2.7583
20
1.57762
11
2.75659
21
1.57506
0
LINE
8
BLACK
6
CONTINUOUS
10
2.75659
20
1.57506
11
2.75404
21
1.57336
0
LINE
8
BLACK
6
CONTINUOUS
10
2.75404
20
1.57336
11
2.75102
21
1.57276
0
LINE
8
BLACK
6
CONTINUOUS
10
2.75102
20
1.57276
11
2.60142
21
1.57276
0
LINE
8
BLACK
6
CONTINUOUS
10
2.60142
20
1.57276
11
2.5984
21
1.57336
0
LINE
8
BLACK
6
CONTINUOUS
10
2.5984
20
1.57336
11
2.59585
21
1.57506
0
LINE
8
BLACK
6
CONTINUOUS
10
2.59585
20
1.57506
11
2.59414
21
1.57762
0
LINE
8
BLACK
6
CONTINUOUS
10
2.59414
20
1.57762
11
2.59354
21
1.58063
0
LINE
8
BLACK
6
CONTINUOUS
10
2.59354
20
1.58063
11
2.59354
21
1.62
0
LINE
8
BLACK
6
CONTINUOUS
10
2.59354
20
1.62
11
2.59414
21
1.62301
0
LINE
8
BLACK
6
CONTINUOUS
10
2.59414
20
1.62301
11
2.59585
21
1.62557
0
LINE
8
BLACK
6
CONTINUOUS
10
2.59585
20
1.62557
11
2.5984
21
1.62727
0
LINE
8
BLACK
6
CONTINUOUS
10
2.5984
20
1.62727
11
2.60142
21
1.62787
0
LINE
8
BLACK
6
CONTINUOUS
10
2.60142
20
1.62787
11
2.75102
21
1.62787
0
LINE
8
BLACK
6
CONTINUOUS
10
2.75102
20
1.62787
11
2.75404
21
1.62727
0
LINE
8
BLACK
6
CONTINUOUS
10
2.04538
20
1.62727
11
2.04793
21
1.62557
0
LINE
8
BLACK
6
CONTINUOUS
10
2.04793
20
1.62557
11
2.04964
21
1.62301
0
LINE
8
BLACK
6
CONTINUOUS
10
2.04964
20
1.62301
11
2.05024
21
1.62
0
LINE
8
BLACK
6
CONTINUOUS
10
2.05024
20
1.62
11
2.05024
21
1.58063
0
LINE
8
BLACK
6
CONTINUOUS
10
2.05024
20
1.58063
11
2.04964
21
1.57762
0
LINE
8
BLACK
6
CONTINUOUS
10
2.04964
20
1.57762
11
2.04793
21
1.57506
0
LINE
8
BLACK
6
CONTINUOUS
10
2.04793
20
1.57506
11
2.04538
21
1.57336
0
LINE
8
BLACK
6
CONTINUOUS
10
2.04538
20
1.57336
11
2.04236
21
1.57276
0
LINE
8
BLACK
6
CONTINUOUS
10
2.04236
20
1.57276
11
1.89276
21
1.57276
0
LINE
8
BLACK
6
CONTINUOUS
10
1.89276
20
1.57276
11
1.88974
21
1.57336
0
LINE
8
BLACK
6
CONTINUOUS
10
1.88974
20
1.57336
11
1.88719
21
1.57506
0
LINE
8
BLACK
6
CONTINUOUS
10
1.88719
20
1.57506
11
1.88548
21
1.57762
0
LINE
8
BLACK
6
CONTINUOUS
10
1.88548
20
1.57762
11
1.88488
21
1.58063
0
LINE
8
BLACK
6
CONTINUOUS
10
1.88488
20
1.58063
11
1.88488
21
1.62
0
LINE
8
BLACK
6
CONTINUOUS
10
1.88488
20
1.62
11
1.88548
21
1.62301
0
LINE
8
BLACK
6
CONTINUOUS
10
1.88548
20
1.62301
11
1.88719
21
1.62557
0
LINE
8
BLACK
6
CONTINUOUS
10
1.88719
20
1.62557
11
1.88974
21
1.62727
0
LINE
8
BLACK
6
CONTINUOUS
10
1.88974
20
1.62727
11
1.89276
21
1.62787
0
LINE
8
BLACK
6
CONTINUOUS
10
1.89276
20
1.62787
11
2.04236
21
1.62787
0
LINE
8
BLACK
6
CONTINUOUS
10
2.04236
20
1.62787
11
2.04538
21
1.62727
0
LINE
8
BLACK
6
CONTINUOUS
10
1.80916
20
1.62727
11
1.81171
21
1.62557
0
LINE
8
BLACK
6
CONTINUOUS
10
1.81171
20
1.62557
11
1.81342
21
1.62301
0
LINE
8
BLACK
6
CONTINUOUS
10
1.81342
20
1.62301
11
1.81402
21
1.62
0
LINE
8
BLACK
6
CONTINUOUS
10
1.81402
20
1.62
11
1.81402
21
1.58063
0
LINE
8
BLACK
6
CONTINUOUS
10
1.81402
20
1.58063
11
1.81342
21
1.57762
0
LINE
8
BLACK
6
CONTINUOUS
10
1.81342
20
1.57762
11
1.81171
21
1.57506
0
LINE
8
BLACK
6
CONTINUOUS
10
1.81171
20
1.57506
11
1.80916
21
1.57336
0
LINE
8
BLACK
6
CONTINUOUS
10
1.80916
20
1.57336
11
1.80614
21
1.57276
0
LINE
8
BLACK
6
CONTINUOUS
10
1.80614
20
1.57276
11
1.65654
21
1.57276
0
LINE
8
BLACK
6
CONTINUOUS
10
1.65654
20
1.57276
11
1.65352
21
1.57336
0
LINE
8
BLACK
6
CONTINUOUS
10
1.65352
20
1.57336
11
1.65097
21
1.57506
0
LINE
8
BLACK
6
CONTINUOUS
10
1.65097
20
1.57506
11
1.64926
21
1.57762
0
LINE
8
BLACK
6
CONTINUOUS
10
1.64926
20
1.57762
11
1.64866
21
1.58063
0
LINE
8
BLACK
6
CONTINUOUS
10
1.64866
20
1.58063
11
1.64866
21
1.62
0
LINE
8
BLACK
6
CONTINUOUS
10
1.64866
20
1.62
11
1.64926
21
1.62301
0
LINE
8
BLACK
6
CONTINUOUS
10
1.64926
20
1.62301
11
1.65097
21
1.62557
0
LINE
8
BLACK
6
CONTINUOUS
10
1.65097
20
1.62557
11
1.65352
21
1.62727
0
LINE
8
BLACK
6
CONTINUOUS
10
1.65352
20
1.62727
11
1.65654
21
1.62787
0
LINE
8
BLACK
6
CONTINUOUS
10
1.65654
20
1.62787
11
1.80614
21
1.62787
0
LINE
8
BLACK
6
CONTINUOUS
10
1.80614
20
1.62787
11
1.80916
21
1.62727
0
LINE
8
BLACK
6
CONTINUOUS
10
2.51782
20
1.62727
11
2.52037
21
1.62557
0
LINE
8
BLACK
6
CONTINUOUS
10
2.52037
20
1.62557
11
2.52208
21
1.62301
0
LINE
8
BLACK
6
CONTINUOUS
10
2.52208
20
1.62301
11
2.52268
21
1.62
0
LINE
8
BLACK
6
CONTINUOUS
10
2.52268
20
1.62
11
2.52268
21
1.58063
0
LINE
8
BLACK
6
CONTINUOUS
10
2.52268
20
1.58063
11
2.52208
21
1.57762
0
LINE
8
BLACK
6
CONTINUOUS
10
2.52208
20
1.57762
11
2.52037
21
1.57506
0
LINE
8
BLACK
6
CONTINUOUS
10
2.52037
20
1.57506
11
2.51782
21
1.57336
0
LINE
8
BLACK
6
CONTINUOUS
10
2.51782
20
1.57336
11
2.5148
21
1.57276
0
LINE
8
BLACK
6
CONTINUOUS
10
2.5148
20
1.57276
11
2.3652
21
1.57276
0
LINE
8
BLACK
6
CONTINUOUS
10
2.3652
20
1.57276
11
2.36218
21
1.57336
0
LINE
8
BLACK
6
CONTINUOUS
10
2.36218
20
1.57336
11
2.35963
21
1.57506
0
LINE
8
BLACK
6
CONTINUOUS
10
2.35963
20
1.57506
11
2.35792
21
1.57762
0
LINE
8
BLACK
6
CONTINUOUS
10
2.35792
20
1.57762
11
2.35732
21
1.58063
0
LINE
8
BLACK
6
CONTINUOUS
10
2.35732
20
1.58063
11
2.35732
21
1.62
0
LINE
8
BLACK
6
CONTINUOUS
10
2.35732
20
1.62
11
2.35792
21
1.62301
0
LINE
8
BLACK
6
CONTINUOUS
10
2.35792
20
1.62301
11
2.35963
21
1.62557
0
LINE
8
BLACK
6
CONTINUOUS
10
2.35963
20
1.62557
11
2.36218
21
1.62727
0
LINE
8
BLACK
6
CONTINUOUS
10
2.36218
20
1.62727
11
2.3652
21
1.62787
0
LINE
8
BLACK
6
CONTINUOUS
10
2.3652
20
1.62787
11
2.5148
21
1.62787
0
LINE
8
BLACK
6
CONTINUOUS
10
2.5148
20
1.62787
11
2.51782
21
1.62727
0
LINE
8
BLACK
6
CONTINUOUS
10
3.41492
20
1.9251
11
3.42877
21
1.92266
0
LINE
8
BLACK
6
CONTINUOUS
10
3.42877
20
1.92266
11
3.44226
21
1.91868
0
LINE
8
BLACK
6
CONTINUOUS
10
3.44226
20
1.91868
11
3.45523
21
1.91323
0
LINE
8
BLACK
6
CONTINUOUS
10
3.45523
20
1.91323
11
3.46751
21
1.90637
0
LINE
8
BLACK
6
CONTINUOUS
10
3.46751
20
1.90637
11
3.47894
21
1.89818
0
LINE
8
BLACK
6
CONTINUOUS
10
3.47894
20
1.89818
11
3.48939
21
1.88877
0
LINE
8
BLACK
6
CONTINUOUS
10
3.48939
20
1.88877
11
3.49873
21
1.87825
0
LINE
8
BLACK
6
CONTINUOUS
10
3.49873
20
1.87825
11
3.50684
21
1.86676
0
LINE
8
BLACK
6
CONTINUOUS
10
3.50684
20
1.86676
11
3.51362
21
1.85444
0
LINE
8
BLACK
6
CONTINUOUS
10
3.51362
20
1.85444
11
3.51898
21
1.84143
0
LINE
8
BLACK
6
CONTINUOUS
10
3.51898
20
1.84143
11
3.52285
21
1.82791
0
LINE
8
BLACK
6
CONTINUOUS
10
3.52285
20
1.82791
11
3.5252
21
1.81404
0
LINE
8
BLACK
6
CONTINUOUS
10
3.5252
20
1.81404
11
3.52598
21
1.8
0
LINE
8
BLACK
6
CONTINUOUS
10
3.52598
20
1.8
11
3.52594
21
1.79648
0
LINE
8
BLACK
6
CONTINUOUS
10
3.52594
20
1.79648
11
3.52476
21
1.78247
0
LINE
8
BLACK
6
CONTINUOUS
10
3.52476
20
1.78247
11
3.52203
21
1.76867
0
LINE
8
BLACK
6
CONTINUOUS
10
3.52203
20
1.76867
11
3.51777
21
1.75526
0
LINE
8
BLACK
6
CONTINUOUS
10
3.51777
20
1.75526
11
3.51205
21
1.74241
0
LINE
8
BLACK
6
CONTINUOUS
10
3.51205
20
1.74241
11
3.50493
21
1.73028
0
LINE
8
BLACK
6
CONTINUOUS
10
3.50493
20
1.73028
11
3.49651
21
1.71902
0
LINE
8
BLACK
6
CONTINUOUS
10
3.49651
20
1.71902
11
3.48688
21
1.70877
0
LINE
8
BLACK
6
CONTINUOUS
10
3.48688
20
1.70877
11
3.47617
21
1.69965
0
LINE
8
BLACK
6
CONTINUOUS
10
3.47617
20
1.69965
11
3.46451
21
1.69178
0
LINE
8
BLACK
6
CONTINUOUS
10
3.46451
20
1.69178
11
3.45204
21
1.68527
0
LINE
8
BLACK
6
CONTINUOUS
10
3.45204
20
1.68527
11
3.43893
21
1.68018
0
LINE
8
BLACK
6
CONTINUOUS
10
3.43893
20
1.68018
11
3.42533
21
1.67659
0
LINE
8
BLACK
6
CONTINUOUS
10
3.42533
20
1.67659
11
3.41142
21
1.67453
0
LINE
8
BLACK
6
CONTINUOUS
10
3.41142
20
1.67453
11
3.39736
21
1.67404
0
LINE
8
BLACK
6
CONTINUOUS
10
3.39736
20
1.67404
11
3.38334
21
1.67512
0
LINE
8
BLACK
6
CONTINUOUS
10
3.38334
20
1.67512
11
3.36952
21
1.67776
0
LINE
8
BLACK
6
CONTINUOUS
10
3.36952
20
1.67776
11
3.35609
21
1.68192
0
LINE
8
BLACK
6
CONTINUOUS
10
3.35609
20
1.68192
11
3.3432
21
1.68755
0
LINE
8
BLACK
6
CONTINUOUS
10
3.3432
20
1.68755
11
3.33102
21
1.69458
0
LINE
8
BLACK
6
CONTINUOUS
10
3.33102
20
1.69458
11
3.31969
21
1.70293
0
LINE
8
BLACK
6
CONTINUOUS
10
3.31969
20
1.70293
11
3.30937
21
1.71248
0
LINE
8
BLACK
6
CONTINUOUS
10
3.30937
20
1.71248
11
3.30018
21
1.72313
0
LINE
8
BLACK
6
CONTINUOUS
10
3.30018
20
1.72313
11
3.29224
21
1.73474
0
LINE
8
BLACK
6
CONTINUOUS
10
3.29224
20
1.73474
11
3.28563
21
1.74716
0
LINE
8
BLACK
6
CONTINUOUS
10
3.28563
20
1.74716
11
3.28046
21
1.76023
0
LINE
8
BLACK
6
CONTINUOUS
10
3.28046
20
1.76023
11
3.27677
21
1.77381
0
LINE
8
BLACK
6
CONTINUOUS
10
3.27677
20
1.77381
11
3.27462
21
1.78771
0
LINE
8
BLACK
6
CONTINUOUS
10
3.27462
20
1.78771
11
3.27403
21
1.80176
0
LINE
8
BLACK
6
CONTINUOUS
10
3.27403
20
1.80176
11
3.27501
21
1.81579
0
LINE
8
BLACK
6
CONTINUOUS
10
3.27501
20
1.81579
11
3.27755
21
1.82962
0
LINE
8
BLACK
6
CONTINUOUS
10
3.27755
20
1.82962
11
3.28161
21
1.84309
0
LINE
8
BLACK
6
CONTINUOUS
10
3.28161
20
1.84309
11
3.28715
21
1.85602
0
LINE
8
BLACK
6
CONTINUOUS
10
3.28715
20
1.85602
11
3.2941
21
1.86825
0
LINE
8
BLACK
6
CONTINUOUS
10
3.2941
20
1.86825
11
3.30237
21
1.87963
0
LINE
8
BLACK
6
CONTINUOUS
10
3.30237
20
1.87963
11
3.31185
21
1.89001
0
LINE
8
BLACK
6
CONTINUOUS
10
3.31185
20
1.89001
11
3.32244
21
1.89928
0
LINE
8
BLACK
6
CONTINUOUS
10
3.32244
20
1.89928
11
3.33399
21
1.9073
0
LINE
8
BLACK
6
CONTINUOUS
10
3.33399
20
1.9073
11
3.34636
21
1.91399
0
LINE
8
BLACK
6
CONTINUOUS
10
3.34636
20
1.91399
11
3.3594
21
1.91926
0
LINE
8
BLACK
6
CONTINUOUS
10
3.3594
20
1.91926
11
3.37295
21
1.92305
0
LINE
8
BLACK
6
CONTINUOUS
10
3.37295
20
1.92305
11
3.38683
21
1.92529
0
LINE
8
BLACK
6
CONTINUOUS
10
3.38683
20
1.92529
11
3.40088
21
1.92598
0
LINE
8
BLACK
6
CONTINUOUS
10
3.40088
20
1.92598
11
3.41492
21
1.9251
  0
ENDSEC
  0
EOF
